<?xml version="1.0" encoding="UTF-8"?>
<svg width="689px" height="694px" viewBox="0 0 689 694" version="1.1" xmlns="http://www.w3.org/2000/svg" xmlns:xlink="http://www.w3.org/1999/xlink">
    <!-- Generator: Sketch 47.1 (45422) - http://www.bohemiancoding.com/sketch -->
    <title>Group</title>
    <desc>Created with Sketch.</desc>
    <defs>
        <linearGradient x1="72.5907407%" y1="40.5092967%" x2="78.6475309%" y2="100%" id="linearGradient-1">
            <stop stop-color="#F2DC60" offset="0%"></stop>
            <stop stop-color="#F3CD62" offset="100%"></stop>
        </linearGradient>
    </defs>
    <g id="Page-1" stroke="none" stroke-width="1" fill="none" fill-rule="evenodd">
        <g id="GOLD-RESERVES" transform="translate(-142.000000, -42.000000)">
            <g id="Group" transform="translate(142.000000, 42.000000)">
                <g id="grid">
                    <rect id="Rectangle-5-Copy-4" fill="#D3D6D7" x="32" y="0" width="1" height="690"></rect>
                    <rect id="Rectangle-5-Copy-5" fill="#D3D6D7" x="241" y="0" width="1" height="693"></rect>
                    <rect id="Rectangle-5-Copy-6" fill="#D3D6D7" x="454" y="1" width="1" height="693"></rect>
                    <rect id="Rectangle-5-Copy-7" fill="#D3D6D7" x="665" y="0" width="1" height="372"></rect>
                    <g id="Group-10" transform="translate(0.000000, 59.000000)" fill="#CACCCD">
                        <path d="M1.33691406,13.1194821 C0.858396045,13.1194821 0.441408027,13.0693524 0.0859375,12.9690914 L0.0859375,11.2054196 C0.450522656,11.2965659 0.783201621,11.3421383 1.08398438,11.3421383 C1.54883045,11.3421383 1.88150941,11.1974458 2.08203125,10.9080563 C2.28255309,10.6186668 2.3828125,10.1663601 2.3828125,9.55112269 L2.3828125,0.185888319 L4.50195312,0.185888319 L4.50195312,9.53745082 C4.50195312,10.7041233 4.23535423,11.5927863 3.70214844,12.2034664 C3.16894265,12.8141466 2.38053907,13.1194821 1.33691406,13.1194821 Z M14.1357422,10.1800289 L13.4111328,7.80112269 L9.76757812,7.80112269 L9.04296875,10.1800289 L6.75976562,10.1800289 L10.2871094,0.144872694 L12.8779297,0.144872694 L16.4189453,10.1800289 L14.1357422,10.1800289 Z M12.9052734,6.02377894 C12.2353482,3.86816921 11.8582361,2.64910588 11.7739258,2.36655238 C11.6896155,2.08399888 11.629232,1.86069383 11.5927734,1.69663051 C11.4423821,2.27996676 11.0117223,3.72233514 10.3007812,6.02377894 L12.9052734,6.02377894 Z M27.5429688,10.1800289 L24.8496094,10.1800289 L20.5019531,2.61948207 L20.4404297,2.61948207 C20.5270187,3.9547752 20.5703125,4.90723964 20.5703125,5.47690394 L20.5703125,10.1800289 L18.6767578,10.1800289 L18.6767578,0.185888319 L21.3496094,0.185888319 L25.6904297,7.67123988 L25.7382812,7.67123988 C25.6699215,6.37240526 25.6357422,5.45412017 25.6357422,4.91635707 L25.6357422,0.185888319 L27.5429688,0.185888319 L27.5429688,10.1800289 Z M40.2207031,10.1800289 L38.1083984,10.1800289 L38.1083984,4.39682582 L38.1289062,3.44663051 L38.1630859,2.40756801 C37.8121727,2.75848122 37.5683601,2.98862215 37.4316406,3.09799769 L36.2832031,4.02084926 L35.2646484,2.74936488 L38.484375,0.185888319 L40.2207031,0.185888319 L40.2207031,10.1800289 Z M43.9208984,5.93491176 C43.9208984,3.95703728 44.3390258,2.4850468 45.175293,1.51889613 C46.0115602,0.552745467 47.2636635,0.0696773811 48.9316406,0.0696773811 C49.5013049,0.0696773811 49.947915,0.103856727 50.2714844,0.172216444 L50.2714844,1.86069301 C49.8658834,1.76954672 49.4648457,1.72397426 49.0683594,1.72397426 C48.3437464,1.72397426 47.7524437,1.83334816 47.2944336,2.05209926 C46.8364235,2.27085035 46.4934907,2.59441482 46.265625,3.02280238 C46.0377593,3.45118994 45.9033205,4.05958229 45.8623047,4.84799769 L45.9511719,4.84799769 C46.402346,4.07325424 47.1246695,3.68588832 48.1181641,3.68588832 C49.0113977,3.68588832 49.710935,3.96615895 50.2167969,4.52670863 C50.7226588,5.08725831 50.9755859,5.86199014 50.9755859,6.85092738 C50.9755859,7.91733896 50.6748077,8.7615688 50.0732422,9.38364222 C49.4716767,10.0057156 48.6377006,10.3167477 47.5712891,10.3167477 C46.8330041,10.3167477 46.1892931,10.145851 45.6401367,9.80405238 C45.0909803,9.4622538 44.6671564,8.96323535 44.3686523,8.30698207 C44.0701482,7.65072879 43.9208984,6.86004659 43.9208984,5.93491176 Z M47.5302734,8.62827113 C47.9814476,8.62827113 48.3277983,8.4767427 48.5693359,8.17368129 C48.8108736,7.87061988 48.9316406,7.43882081 48.9316406,6.87827113 C48.9316406,6.39063848 48.8188488,6.0066905 48.5932617,5.72641566 C48.3676747,5.44614082 48.0270205,5.30600551 47.5712891,5.30600551 C47.1429015,5.30600551 46.7771825,5.44500151 46.4741211,5.72299769 C46.1710597,6.00099388 46.0195312,6.32455835 46.0195312,6.69370082 C46.0195312,7.23602124 46.1619452,7.69402447 46.4467773,8.06772426 C46.7316095,8.44142404 47.0927712,8.62827113 47.5302734,8.62827113 Z M55.1953125,0.185888319 L55.2910156,0.336278944 C55.0631499,1.23406989 54.6621122,2.32553033 54.0878906,3.61069301 L52.5908203,3.61069301 C52.905275,2.26172793 53.1331373,1.12013778 53.2744141,0.185888319 L55.1953125,0.185888319 Z" id="JAN-16’"></path>
                        <path d="M209.461914,13.1194821 C208.983396,13.1194821 208.566408,13.0693524 208.210938,12.9690914 L208.210938,11.2054196 C208.575523,11.2965659 208.908202,11.3421383 209.208984,11.3421383 C209.67383,11.3421383 210.006509,11.1974458 210.207031,10.9080563 C210.407553,10.6186668 210.507812,10.1663601 210.507812,9.55112269 L210.507812,0.185888319 L212.626953,0.185888319 L212.626953,9.53745082 C212.626953,10.7041233 212.360354,11.5927863 211.827148,12.2034664 C211.293943,12.8141466 210.505539,13.1194821 209.461914,13.1194821 Z M224.277344,0.185888319 L224.277344,6.65268519 C224.277344,7.39097013 224.112144,8.03809908 223.781738,8.59409144 C223.451333,9.15008381 222.973961,9.57618632 222.349609,9.87241176 C221.725257,10.1686372 220.986983,10.3167477 220.134766,10.3167477 C218.849603,10.3167477 217.851566,9.98748666 217.140625,9.32895472 C216.429684,8.67042279 216.074219,7.76922737 216.074219,6.62534144 L216.074219,0.185888319 L218.186523,0.185888319 L218.186523,6.30405238 C218.186523,7.07423852 218.34147,7.63933704 218.651367,7.99936488 C218.961265,8.35939272 219.473955,8.53940394 220.189453,8.53940394 C220.882165,8.53940394 221.384601,8.35825341 221.696777,7.99594691 C222.008953,7.63364041 222.165039,7.06512396 222.165039,6.29038051 L222.165039,0.185888319 L224.277344,0.185888319 Z M236.59082,10.1800289 L233.897461,10.1800289 L229.549805,2.61948207 L229.488281,2.61948207 C229.57487,3.9547752 229.618164,4.90723964 229.618164,5.47690394 L229.618164,10.1800289 L227.724609,10.1800289 L227.724609,0.185888319 L230.397461,0.185888319 L234.738281,7.67123988 L234.786133,7.67123988 C234.717773,6.37240526 234.683594,5.45412017 234.683594,4.91635707 L234.683594,0.185888319 L236.59082,0.185888319 L236.59082,10.1800289 Z M249.268555,10.1800289 L247.15625,10.1800289 L247.15625,4.39682582 L247.176758,3.44663051 L247.210938,2.40756801 C246.860024,2.75848122 246.616212,2.98862215 246.479492,3.09799769 L245.331055,4.02084926 L244.3125,2.74936488 L247.532227,0.185888319 L249.268555,0.185888319 L249.268555,10.1800289 Z M252.96875,5.93491176 C252.96875,3.95703728 253.386877,2.4850468 254.223145,1.51889613 C255.059412,0.552745467 256.311515,0.0696773811 257.979492,0.0696773811 C258.549156,0.0696773811 258.995767,0.103856727 259.319336,0.172216444 L259.319336,1.86069301 C258.913735,1.76954672 258.512697,1.72397426 258.116211,1.72397426 C257.391598,1.72397426 256.800295,1.83334816 256.342285,2.05209926 C255.884275,2.27085035 255.541342,2.59441482 255.313477,3.02280238 C255.085611,3.45118994 254.951172,4.05958229 254.910156,4.84799769 L254.999023,4.84799769 C255.450198,4.07325424 256.172521,3.68588832 257.166016,3.68588832 C258.059249,3.68588832 258.758787,3.96615895 259.264648,4.52670863 C259.77051,5.08725831 260.023438,5.86199014 260.023438,6.85092738 C260.023438,7.91733896 259.722659,8.7615688 259.121094,9.38364222 C258.519528,10.0057156 257.685552,10.3167477 256.619141,10.3167477 C255.880856,10.3167477 255.237145,10.145851 254.687988,9.80405238 C254.138832,9.4622538 253.715008,8.96323535 253.416504,8.30698207 C253.118,7.65072879 252.96875,6.86004659 252.96875,5.93491176 Z M256.578125,8.62827113 C257.029299,8.62827113 257.37565,8.4767427 257.617188,8.17368129 C257.858725,7.87061988 257.979492,7.43882081 257.979492,6.87827113 C257.979492,6.39063848 257.8667,6.0066905 257.641113,5.72641566 C257.415526,5.44614082 257.074872,5.30600551 256.619141,5.30600551 C256.190753,5.30600551 255.825034,5.44500151 255.521973,5.72299769 C255.218911,6.00099388 255.067383,6.32455835 255.067383,6.69370082 C255.067383,7.23602124 255.209797,7.69402447 255.494629,8.06772426 C255.779461,8.44142404 256.140623,8.62827113 256.578125,8.62827113 Z M264.243164,0.185888319 L264.338867,0.336278944 C264.111001,1.23406989 263.709964,2.32553033 263.135742,3.61069301 L261.638672,3.61069301 C261.953127,2.26172793 262.180989,1.12013778 262.322266,0.185888319 L264.243164,0.185888319 Z" id="JuN-16’"></path>
                        <path d="M422.274414,13.1167324 C421.795896,13.1167324 421.378908,13.0666027 421.023437,12.9663418 L421.023437,11.2026699 C421.388023,11.2938162 421.720702,11.3393887 422.021484,11.3393887 C422.48633,11.3393887 422.819009,11.1946961 423.019531,10.9053066 C423.220053,10.6159172 423.320312,10.1636105 423.320312,9.54837306 L423.320312,0.18313868 L425.439453,0.18313868 L425.439453,9.53470118 C425.439453,10.7013737 425.172854,11.5900367 424.639648,12.2007168 C424.106443,12.8113969 423.318039,13.1167324 422.274414,13.1167324 Z M435.073242,10.1772793 L434.348633,7.79837306 L430.705078,7.79837306 L429.980469,10.1772793 L427.697266,10.1772793 L431.224609,0.142123055 L433.81543,0.142123055 L437.356445,10.1772793 L435.073242,10.1772793 Z M433.842773,6.02102931 C433.172848,3.86541957 432.795736,2.64635624 432.711426,2.36380274 C432.627115,2.08124925 432.566732,1.85794419 432.530273,1.69388087 C432.379882,2.27721712 431.949222,3.71958551 431.238281,6.02102931 L433.842773,6.02102931 Z M448.480469,10.1772793 L445.787109,10.1772793 L441.439453,2.61673243 L441.37793,2.61673243 C441.464519,3.95202557 441.507812,4.90449 441.507812,5.47415431 L441.507812,10.1772793 L439.614258,10.1772793 L439.614258,0.18313868 L442.287109,0.18313868 L446.62793,7.66849024 L446.675781,7.66849024 C446.607422,6.36965562 446.573242,5.45137054 446.573242,4.91360743 L446.573242,0.18313868 L448.480469,0.18313868 L448.480469,10.1772793 Z M461.158203,10.1772793 L459.045898,10.1772793 L459.045898,4.39407618 L459.066406,3.44388087 L459.100586,2.40481837 C458.749673,2.75573158 458.50586,2.98587251 458.369141,3.09524806 L457.220703,4.01809962 L456.202148,2.74661524 L459.421875,0.18313868 L461.158203,0.18313868 L461.158203,10.1772793 Z M465.917969,10.1772793 L469.670898,1.97415431 L464.742187,1.97415431 L464.742187,0.196810555 L471.913086,0.196810555 L471.913086,1.52298243 L468.132812,10.1772793 L465.917969,10.1772793 Z M476.132812,0.18313868 L476.228516,0.333529305 C476.00065,1.23132025 475.599612,2.32278069 475.025391,3.60794337 L473.52832,3.60794337 C473.842775,2.25897829 474.070637,1.11738814 474.211914,0.18313868 L476.132812,0.18313868 Z" id="Jan-17’"></path>
                        <path d="M633.211914,13.1167324 C632.733396,13.1167324 632.316408,13.0666027 631.960937,12.9663418 L631.960937,11.2026699 C632.325523,11.2938162 632.658202,11.3393887 632.958984,11.3393887 C633.42383,11.3393887 633.756509,11.1946961 633.957031,10.9053066 C634.157553,10.6159172 634.257812,10.1636105 634.257812,9.54837306 L634.257812,0.18313868 L636.376953,0.18313868 L636.376953,9.53470118 C636.376953,10.7013737 636.110354,11.5900367 635.577148,12.2007168 C635.043943,12.8113969 634.255539,13.1167324 633.211914,13.1167324 Z M648.027344,0.18313868 L648.027344,6.64993556 C648.027344,7.3882205 647.862144,8.03534944 647.531738,8.59134181 C647.201333,9.14733417 646.723961,9.57343668 646.099609,9.86966212 C645.475257,10.1658876 644.736983,10.3139981 643.884766,10.3139981 C642.599603,10.3139981 641.601566,9.98473703 640.890625,9.32620509 C640.179684,8.66767315 639.824219,7.76647773 639.824219,6.62259181 L639.824219,0.18313868 L641.936523,0.18313868 L641.936523,6.30130274 C641.936523,7.07148889 642.09147,7.6365874 642.401367,7.99661524 C642.711265,8.35664308 643.223955,8.53665431 643.939453,8.53665431 C644.632165,8.53665431 645.134601,8.35550377 645.446777,7.99319727 C645.758953,7.63089078 645.915039,7.06237432 645.915039,6.28763087 L645.915039,0.18313868 L648.027344,0.18313868 Z M660.34082,10.1772793 L657.647461,10.1772793 L653.299805,2.61673243 L653.238281,2.61673243 C653.32487,3.95202557 653.368164,4.90449 653.368164,5.47415431 L653.368164,10.1772793 L651.474609,10.1772793 L651.474609,0.18313868 L654.147461,0.18313868 L658.488281,7.66849024 L658.536133,7.66849024 C658.467773,6.36965562 658.433594,5.45137054 658.433594,4.91360743 L658.433594,0.18313868 L660.34082,0.18313868 L660.34082,10.1772793 Z M673.018555,10.1772793 L670.90625,10.1772793 L670.90625,4.39407618 L670.926758,3.44388087 L670.960937,2.40481837 C670.610024,2.75573158 670.366212,2.98587251 670.229492,3.09524806 L669.081055,4.01809962 L668.0625,2.74661524 L671.282227,0.18313868 L673.018555,0.18313868 L673.018555,10.1772793 Z M677.77832,10.1772793 L681.53125,1.97415431 L676.602539,1.97415431 L676.602539,0.196810555 L683.773437,0.196810555 L683.773437,1.52298243 L679.993164,10.1772793 L677.77832,10.1772793 Z M687.993164,0.18313868 L688.088867,0.333529305 C687.861001,1.23132025 687.459964,2.32278069 686.885742,3.60794337 L685.388672,3.60794337 C685.703127,2.25897829 685.930989,1.11738814 686.072266,0.18313868 L687.993164,0.18313868 Z" id="Jun-17’"></path>
                    </g>
                </g>
                <g id="gold-reserves" transform="translate(11.000000, 118.000000)">
                    <g id="yellow-graph" transform="translate(17.000000, 108.000000)">
                        <polygon id="Path-4-Copy" fill="url(#linearGradient-1)" points="3.25 467 3.25 436.991317 45.5 406.5 87.5 375.5 130 360.5 172 352.5 214 328.5 256.5 281.5 298.5 264 340.5 247.5 383 238 425 238 467.5 238 509.5 214.5 551.5 175 594 97 638 4 637.0625 467"></polygon>
                        <g id="point" transform="translate(0.500000, 433.240232)" fill="#4C4F57">
                            <ellipse id="Oval" cx="3.5" cy="4" rx="2.8" ry="3.2"></ellipse>
                        </g>
                        <g id="point" transform="translate(41.687500, 401.920405)" fill="#4C4F57">
                            <circle id="Oval" cx="4" cy="4" r="3.2"></circle>
                        </g>
                        <g id="point" transform="translate(83.875000, 372.413893)" fill="#4C4F57">
                            <circle id="Oval" cx="4" cy="4" r="3.2"></circle>
                        </g>
                        <g id="point" transform="translate(126.062500, 356.222865)" fill="#4C4F57">
                            <circle id="Oval" cx="4" cy="4" r="3.2"></circle>
                        </g>
                        <g id="point" transform="translate(168.250000, 347.720695)" fill="#4C4F57">
                            <circle id="Oval" cx="4" cy="4" r="3.2"></circle>
                        </g>
                        <g id="point" transform="translate(209.437500, 324.836469)" fill="#4C4F57">
                            <ellipse id="Oval" cx="3.5" cy="4" rx="2.8" ry="3.2"></ellipse>
                        </g>
                        <g id="point" transform="translate(252.625000, 278.263386)" fill="#4C4F57">
                            <ellipse id="Oval" cx="3.5" cy="4" rx="2.8" ry="3.2"></ellipse>
                        </g>
                        <g id="point" transform="translate(294.812500, 259.383502)" fill="#4C4F57">
                            <ellipse id="Oval" cx="3.5" cy="4" rx="2.8" ry="3.2"></ellipse>
                        </g>
                        <g id="point" transform="translate(337.000000, 244.441389)" fill="#4C4F57">
                            <ellipse id="Oval" cx="3.5" cy="4" rx="2.8" ry="3.2"></ellipse>
                        </g>
                        <g id="point" transform="translate(379.187500, 235.063676)" fill="#4C4F57">
                            <ellipse id="Oval" cx="3.5" cy="4" rx="2.8" ry="3.2"></ellipse>
                        </g>
                        <g id="point" transform="translate(423.375000, 234.063676)" fill="#4C4F57">
                            <ellipse id="Oval" cx="3.5" cy="4" rx="2.8" ry="3.2"></ellipse>
                        </g>
                        <g id="point" transform="translate(463.500000, 233.063676)" fill="#4C4F57">
                            <circle id="Oval" cx="4" cy="4" r="3.2"></circle>
                        </g>
                        <g id="point" transform="translate(505.750000, 210.121563)" fill="#4C4F57">
                            <ellipse id="Oval" cx="3.5" cy="4" rx="2.8" ry="3.2"></ellipse>
                        </g>
                        <g id="point" transform="translate(547.937500, 170.917511)" fill="#4C4F57">
                            <ellipse id="Oval" cx="3.5" cy="4" rx="2.8" ry="3.2"></ellipse>
                        </g>
                        <g id="point" transform="translate(590.125000, 92.380608)" fill="#4C4F57">
                            <ellipse id="Oval" cx="3.5" cy="4" rx="2.8" ry="3.2"></ellipse>
                        </g>
                        <g id="point" transform="translate(633.312500, 0.287988)" fill="#4C4F57">
                            <ellipse id="Oval" cx="3.5" cy="4" rx="2.8" ry="3.2"></ellipse>
                        </g>
                    </g>
                    <path d="M-23.1347656,62.5 L-24.3066406,62.5 L-27.4296875,58.3457031 L-28.3261719,59.1425781 L-28.3261719,62.5 L-29.3222656,62.5 L-29.3222656,53.9335938 L-28.3261719,53.9335938 L-28.3261719,58.1816406 L-24.4414062,53.9335938 L-23.2636719,53.9335938 L-26.7089844,57.6542969 L-23.1347656,62.5 Z M-19.9570312,62.5 L-19.9570312,53.9335938 L-18.9609375,53.9335938 L-18.9609375,62.5 L-19.9570312,62.5 Z M-14.6113281,62.5 L-14.6113281,53.9335938 L-13.6152344,53.9335938 L-13.6152344,61.5976562 L-9.8359375,61.5976562 L-9.8359375,62.5 L-14.6113281,62.5 Z M0.8125,58.2050781 C0.8125,59.5761787 0.465823779,60.6542929 -0.227539062,61.4394531 C-0.920901904,62.2246133 -1.88475945,62.6171875 -3.11914062,62.6171875 C-4.38086568,62.6171875 -5.35448876,62.2314492 -6.04003906,61.4599609 C-6.72558937,60.6884727 -7.06835938,59.5996164 -7.06835938,58.1933594 C-7.06835938,56.7988212 -6.72461281,55.7177773 -6.03710938,54.9501953 C-5.34960594,54.1826133 -4.3730532,53.7988281 -3.10742188,53.7988281 C-1.87694697,53.7988281 -0.916019082,54.1894492 -0.224609375,54.9707031 C0.466800332,55.751957 0.8125,56.8300713 0.8125,58.2050781 Z M-6.01367188,58.2050781 C-6.01367188,59.3652402 -5.76660403,60.2451142 -5.27246094,60.8447266 C-4.77831784,61.4443389 -4.06055158,61.7441406 -3.11914062,61.7441406 C-2.16991713,61.7441406 -1.45312742,61.4453155 -0.96875,60.8476562 C-0.484372578,60.249997 -0.2421875,59.3691464 -0.2421875,58.2050781 C-0.2421875,57.0527286 -0.483396025,56.1787139 -0.965820312,55.5830078 C-1.4482446,54.9873017 -2.16210465,54.6894531 -3.10742188,54.6894531 C-4.05664537,54.6894531 -4.77831784,54.9892548 -5.27246094,55.5888672 C-5.76660403,56.1884796 -6.01367188,57.0605412 -6.01367188,58.2050781 Z M8.49023438,58.0117188 L11.4023438,58.0117188 L11.4023438,62.1777344 C10.9492165,62.3222663 10.4882836,62.4316403 10.0195312,62.5058594 C9.55077891,62.5800785 9.00781559,62.6171875 8.390625,62.6171875 C7.09374352,62.6171875 6.08398799,62.2314492 5.36132812,61.4599609 C4.63866826,60.6884727 4.27734375,59.6074288 4.27734375,58.2167969 C4.27734375,57.3261674 4.4560529,56.5459018 4.81347656,55.8759766 C5.17090022,55.2060513 5.68554352,54.6943377 6.35742188,54.3408203 C7.02930023,53.9873029 7.81640174,53.8105469 8.71875,53.8105469 C9.63281707,53.8105469 10.4843711,53.9785139 11.2734375,54.3144531 L10.8867188,55.1933594 C10.1132774,54.8652327 9.3691442,54.7011719 8.65429688,54.7011719 C7.61132291,54.7011719 6.79687793,55.0117156 6.2109375,55.6328125 C5.62499707,56.2539094 5.33203125,57.1152289 5.33203125,58.2167969 C5.33203125,59.3730527 5.61425499,60.249997 6.17871094,60.8476562 C6.74316688,61.4453155 7.57226016,61.7441406 8.66601562,61.7441406 C9.25976859,61.7441406 9.83984092,61.6757819 10.40625,61.5390625 L10.40625,58.9023438 L8.49023438,58.9023438 L8.49023438,58.0117188 Z M16.4550781,58.9375 L16.4550781,62.5 L15.4589844,62.5 L15.4589844,53.9335938 L17.8085938,53.9335938 C18.8593803,53.9335938 19.6357397,54.1347636 20.1376953,54.5371094 C20.6396509,54.9394551 20.890625,55.5449178 20.890625,56.3535156 C20.890625,57.4863338 20.316412,58.2519511 19.1679688,58.6503906 L21.4941406,62.5 L20.3164062,62.5 L18.2421875,58.9375 L16.4550781,58.9375 Z M16.4550781,58.0820312 L17.8203125,58.0820312 C18.523441,58.0820312 19.0390609,57.9423842 19.3671875,57.6630859 C19.6953141,57.3837877 19.859375,56.9648465 19.859375,56.40625 C19.859375,55.8398409 19.6923845,55.4316419 19.3583984,55.1816406 C19.0244124,54.9316394 18.4882849,54.8066406 17.75,54.8066406 L16.4550781,54.8066406 L16.4550781,58.0820312 Z M30.2617188,62.5 L29.1953125,59.7753906 L25.7617188,59.7753906 L24.7070312,62.5 L23.6992188,62.5 L27.0859375,53.8984375 L27.9238281,53.8984375 L31.2929688,62.5 L30.2617188,62.5 Z M28.8847656,58.8789062 L27.8886719,56.2246094 C27.759765,55.8886702 27.6269538,55.4765649 27.4902344,54.9882812 C27.4042964,55.3632831 27.2812508,55.7753884 27.1210938,56.2246094 L26.1132812,58.8789062 L28.8847656,58.8789062 Z M38.2617188,62.5 L35.3554688,54.90625 L35.3085938,54.90625 C35.3632815,55.5078155 35.390625,56.2226521 35.390625,57.0507812 L35.390625,62.5 L34.4707031,62.5 L34.4707031,53.9335938 L35.9707031,53.9335938 L38.6835938,61 L38.7304688,61 L41.4667969,53.9335938 L42.9550781,53.9335938 L42.9550781,62.5 L41.9589844,62.5 L41.9589844,56.9804688 C41.9589844,56.3476531 41.9863279,55.66016 42.0410156,54.9179688 L41.9941406,54.9179688 L39.0644531,62.5 L38.2617188,62.5 Z" id="KILOGRAM" fill="#191F26" transform="translate(6.816406, 58.208008) rotate(-90.000000) translate(-6.816406, -58.208008) "></path>
                    <path d="M6.4453125,9.0546875 C6.3046868,8.9140618 6.3046868,8.7734382 6.4453125,8.6328125 L8.80078125,6.03125 L-1.21875,6.03125 C-1.40625094,6.03125 -1.5,5.93750094 -1.5,5.75 C-1.5,5.56249906 -1.40625094,5.46875 -1.21875,5.46875 L8.80078125,5.46875 L6.4453125,2.8671875 C6.3046868,2.7265618 6.3046868,2.5859382 6.4453125,2.4453125 C6.5859382,2.3046868 6.7265618,2.3046868 6.8671875,2.4453125 C8.71875926,4.4843852 9.65624988,5.51562488 9.6796875,5.5390625 C9.72656273,5.58593773 9.75,5.65624953 9.75,5.75 C9.75,5.84375047 9.72656273,5.91406227 9.6796875,5.9609375 L6.8671875,9.0546875 C6.82031227,9.10156273 6.75000047,9.125 6.65625,9.125 C6.56249953,9.125 6.49218773,9.10156273 6.4453125,9.0546875 Z" id="ion-ios-arrow-thin-right---Ionicons" stroke="#191F26" stroke-width="3" fill="#191F26" transform="translate(4.125000, 5.732422) rotate(-90.000000) translate(-4.125000, -5.732422) "></path>
                    <path d="M37.5976562,486.527344 C38.4257854,486.527344 39.0849585,486.759763 39.5751953,487.224609 C40.0654321,487.689455 40.3105469,488.326168 40.3105469,489.134766 C40.3105469,490.091802 40.0156279,490.828122 39.4257812,491.34375 C38.8359346,491.859378 37.992193,492.117188 36.8945312,492.117188 C35.9414015,492.117188 35.1718779,491.962892 34.5859375,491.654297 L34.5859375,490.089844 C34.8945328,490.253907 35.2539042,490.387695 35.6640625,490.491211 C36.0742208,490.594727 36.4628888,490.646484 36.8300781,490.646484 C37.9355524,490.646484 38.4882812,490.193364 38.4882812,489.287109 C38.4882812,488.423824 37.9160213,487.992188 36.7714844,487.992188 C36.5644521,487.992188 36.3359387,488.012695 36.0859375,488.053711 C35.8359363,488.094727 35.6328133,488.138672 35.4765625,488.185547 L34.7558594,487.798828 L35.078125,483.433594 L39.7246094,483.433594 L39.7246094,484.96875 L36.6660156,484.96875 L36.5078125,486.650391 L36.7128906,486.609375 C36.9511731,486.554687 37.246092,486.527344 37.5976562,486.527344 Z" id="5" fill="#CACCCD"></path>
                    <path d="M38.9570312,451.2 L37.1464844,451.2 L37.1464844,446.242969 L37.1640625,445.428516 L37.1933594,444.537891 C36.8925766,444.838673 36.6835943,445.035937 36.5664062,445.129687 L35.5820312,445.920703 L34.7089844,444.830859 L37.46875,442.633594 L38.9570312,442.633594 L38.9570312,451.2 Z M45.3044084,445.727344 C46.1325376,445.727344 46.7917107,445.959763 47.2819475,446.424609 C47.7721843,446.889455 48.0172991,447.526168 48.017299,448.334766 C48.0172991,449.291802 47.7223801,450.028122 47.1325334,450.54375 C46.5426867,451.059378 45.6989452,451.317187 44.6012834,451.317187 C43.6481537,451.317187 42.8786301,451.162892 42.2926897,450.854297 L42.2926897,449.289844 C42.601285,449.453907 42.9606564,449.587695 43.3708147,449.691211 C43.780973,449.794727 44.169641,449.846484 44.5368303,449.846484 C45.6423046,449.846484 46.1950334,449.393364 46.1950334,448.487109 C46.1950334,447.623824 45.6227735,447.192187 44.4782365,447.192187 C44.2712043,447.192187 44.0426909,447.212695 43.7926897,447.253711 C43.5426884,447.294727 43.3395655,447.338672 43.1833147,447.385547 L42.4626115,446.998828 L42.7848772,442.633594 L47.4313615,442.633594 L47.4313615,444.16875 L44.3727678,444.16875 L44.2145647,445.850391 L44.4196428,445.809375 C44.6579252,445.754687 44.9528442,445.727344 45.3044084,445.727344 Z" id="15" fill="#CACCCD"></path>
                    <path d="M40.46875,410.4 L34.4804688,410.4 L34.4804688,409.140234 L36.6308594,406.966406 C37.2675813,406.314059 37.6835928,405.861915 37.8789062,405.609961 C38.0742197,405.358007 38.2148433,405.12461 38.3007812,404.909766 C38.3867192,404.694921 38.4296875,404.472267 38.4296875,404.241797 C38.4296875,403.898045 38.3349619,403.642188 38.1455078,403.474219 C37.9560537,403.306249 37.7031266,403.222266 37.3867188,403.222266 C37.0546858,403.222266 36.7324234,403.298437 36.4199219,403.450781 C36.1074203,403.603126 35.7812517,403.81992 35.4414062,404.101172 L34.4570312,402.935156 C34.8789084,402.575779 35.2285142,402.321876 35.5058594,402.173437 C35.7832045,402.024999 36.0859359,401.910743 36.4140625,401.830664 C36.7421891,401.750586 37.109373,401.710547 37.515625,401.710547 C38.0507839,401.710547 38.5234354,401.808202 38.9335938,402.003516 C39.3437521,402.198829 39.6621082,402.472264 39.8886719,402.823828 C40.1152355,403.175392 40.2285156,403.577732 40.2285156,404.030859 C40.2285156,404.425393 40.1591804,404.795506 40.0205078,405.141211 C39.8818352,405.486916 39.6669936,405.841404 39.3759766,406.204687 C39.0849595,406.567971 38.5722693,407.085544 37.8378906,407.757422 L36.7363281,408.794531 L36.7363281,408.876562 L40.46875,408.876562 L40.46875,410.4 Z M45.3044084,404.927344 C46.1325376,404.927344 46.7917107,405.159763 47.2819475,405.624609 C47.7721843,406.089455 48.0172991,406.726168 48.017299,407.534766 C48.0172991,408.491802 47.7223801,409.228122 47.1325334,409.74375 C46.5426867,410.259378 45.6989452,410.517187 44.6012834,410.517187 C43.6481537,410.517187 42.8786301,410.362892 42.2926897,410.054297 L42.2926897,408.489844 C42.601285,408.653907 42.9606564,408.787695 43.3708147,408.891211 C43.780973,408.994727 44.169641,409.046484 44.5368303,409.046484 C45.6423046,409.046484 46.1950334,408.593364 46.1950334,407.687109 C46.1950334,406.823824 45.6227735,406.392187 44.4782365,406.392187 C44.2712043,406.392187 44.0426909,406.412695 43.7926897,406.453711 C43.5426884,406.494727 43.3395655,406.538672 43.1833147,406.585547 L42.4626115,406.198828 L42.7848772,401.833594 L47.4313615,401.833594 L47.4313615,403.36875 L44.3727678,403.36875 L44.2145647,405.050391 L44.4196428,405.009375 C44.6579252,404.954687 44.9528442,404.927344 45.3044084,404.927344 Z" id="25" fill="#CACCCD"></path>
                    <path d="M40.1347656,362.949609 C40.1347656,363.484768 39.9726579,363.939842 39.6484375,364.314844 C39.3242171,364.689846 38.8691436,364.947656 38.2832031,365.088281 L38.2832031,365.123437 C38.9746128,365.209375 39.4980451,365.419334 39.8535156,365.75332 C40.2089862,366.087306 40.3867188,366.537497 40.3867188,367.103906 C40.3867188,367.928129 40.0878936,368.569724 39.4902344,369.028711 C38.8925751,369.487698 38.039068,369.717187 36.9296875,369.717187 C35.9999954,369.717187 35.1757848,369.562892 34.4570312,369.254297 L34.4570312,367.713281 C34.7890642,367.881251 35.1542949,368.017968 35.5527344,368.123437 C35.9511739,368.228907 36.3457012,368.281641 36.7363281,368.281641 C37.3339874,368.281641 37.7753892,368.180079 38.0605469,367.976953 C38.3457046,367.773827 38.4882812,367.447658 38.4882812,366.998437 C38.4882812,366.596092 38.3242204,366.310938 37.9960938,366.142969 C37.6679671,365.974999 37.1445348,365.891016 36.4257812,365.891016 L35.7753906,365.891016 L35.7753906,364.502344 L36.4375,364.502344 C37.1015658,364.502344 37.5869125,364.415431 37.8935547,364.241602 C38.2001968,364.067773 38.3535156,363.769924 38.3535156,363.348047 C38.3535156,362.699606 37.9472697,362.375391 37.1347656,362.375391 C36.8535142,362.375391 36.5673843,362.422265 36.2763672,362.516016 C35.9853501,362.609766 35.6621112,362.771874 35.3066406,363.002344 L34.46875,361.754297 C35.2500039,361.191794 36.1816352,360.910547 37.2636719,360.910547 C38.1503951,360.910547 38.8505834,361.090233 39.3642578,361.449609 C39.8779323,361.808986 40.1347656,362.308981 40.1347656,362.949609 Z M45.3044084,364.127344 C46.1325376,364.127344 46.7917107,364.359763 47.2819475,364.824609 C47.7721843,365.289455 48.0172991,365.926168 48.017299,366.734766 C48.0172991,367.691802 47.7223801,368.428122 47.1325334,368.94375 C46.5426867,369.459378 45.6989452,369.717187 44.6012834,369.717187 C43.6481537,369.717187 42.8786301,369.562892 42.2926897,369.254297 L42.2926897,367.689844 C42.601285,367.853907 42.9606564,367.987695 43.3708147,368.091211 C43.780973,368.194727 44.169641,368.246484 44.5368303,368.246484 C45.6423046,368.246484 46.1950334,367.793364 46.1950334,366.887109 C46.1950334,366.023824 45.6227735,365.592187 44.4782365,365.592187 C44.2712043,365.592187 44.0426909,365.612695 43.7926897,365.653711 C43.5426884,365.694727 43.3395655,365.738672 43.1833147,365.785547 L42.4626115,365.398828 L42.7848772,361.033594 L47.4313615,361.033594 L47.4313615,362.56875 L44.3727678,362.56875 L44.2145647,364.250391 L44.4196428,364.209375 C44.6579252,364.154687 44.9528442,364.127344 45.3044084,364.127344 Z" id="35" fill="#CACCCD"></path>
                    <path d="M40.6621094,327.024609 L39.6308594,327.024609 L39.6308594,328.8 L37.8613281,328.8 L37.8613281,327.024609 L34.2050781,327.024609 L34.2050781,325.764844 L37.9609375,320.233594 L39.6308594,320.233594 L39.6308594,325.618359 L40.6621094,325.618359 L40.6621094,327.024609 Z M37.8613281,325.618359 L37.8613281,324.165234 C37.8613281,323.923046 37.8710937,323.571487 37.890625,323.110547 C37.9101563,322.649607 37.9257812,322.382032 37.9375,322.307813 L37.890625,322.307813 C37.746093,322.628127 37.5722666,322.940623 37.3691406,323.245313 L35.7988281,325.618359 L37.8613281,325.618359 Z M45.3044084,323.327344 C46.1325376,323.327344 46.7917107,323.559763 47.2819475,324.024609 C47.7721843,324.489455 48.0172991,325.126168 48.017299,325.934766 C48.0172991,326.891802 47.7223801,327.628122 47.1325334,328.14375 C46.5426867,328.659378 45.6989452,328.917188 44.6012834,328.917188 C43.6481537,328.917188 42.8786301,328.762892 42.2926897,328.454297 L42.2926897,326.889844 C42.601285,327.053907 42.9606564,327.187695 43.3708147,327.291211 C43.780973,327.394727 44.169641,327.446484 44.5368303,327.446484 C45.6423046,327.446484 46.1950334,326.993364 46.1950334,326.087109 C46.1950334,325.223824 45.6227735,324.792188 44.4782365,324.792188 C44.2712043,324.792188 44.0426909,324.812695 43.7926897,324.853711 C43.5426884,324.894727 43.3395655,324.938672 43.1833147,324.985547 L42.4626115,324.598828 L42.7848772,320.233594 L47.4313615,320.233594 L47.4313615,321.76875 L44.3727678,321.76875 L44.2145647,323.450391 L44.4196428,323.409375 C44.6579252,323.354687 44.9528442,323.327344 45.3044084,323.327344 Z" id="45" fill="#CACCCD"></path>
                    <path d="M37.5976562,282.527344 C38.4257854,282.527344 39.0849585,282.759763 39.5751953,283.224609 C40.0654321,283.689455 40.3105469,284.326168 40.3105469,285.134766 C40.3105469,286.091802 40.0156279,286.828122 39.4257812,287.34375 C38.8359346,287.859378 37.992193,288.117188 36.8945312,288.117188 C35.9414015,288.117188 35.1718779,287.962892 34.5859375,287.654297 L34.5859375,286.089844 C34.8945328,286.253907 35.2539042,286.387695 35.6640625,286.491211 C36.0742208,286.594727 36.4628888,286.646484 36.8300781,286.646484 C37.9355524,286.646484 38.4882812,286.193364 38.4882812,285.287109 C38.4882812,284.423824 37.9160213,283.992188 36.7714844,283.992188 C36.5644521,283.992188 36.3359387,284.012695 36.0859375,284.053711 C35.8359363,284.094727 35.6328133,284.138672 35.4765625,284.185547 L34.7558594,283.798828 L35.078125,279.433594 L39.7246094,279.433594 L39.7246094,280.96875 L36.6660156,280.96875 L36.5078125,282.650391 L36.7128906,282.609375 C36.9511731,282.554687 37.246092,282.527344 37.5976562,282.527344 Z M45.3044084,282.527344 C46.1325376,282.527344 46.7917107,282.759763 47.2819475,283.224609 C47.7721843,283.689455 48.0172991,284.326168 48.017299,285.134766 C48.0172991,286.091802 47.7223801,286.828122 47.1325334,287.34375 C46.5426867,287.859378 45.6989452,288.117188 44.6012834,288.117188 C43.6481537,288.117188 42.8786301,287.962892 42.2926897,287.654297 L42.2926897,286.089844 C42.601285,286.253907 42.9606564,286.387695 43.3708147,286.491211 C43.780973,286.594727 44.169641,286.646484 44.5368303,286.646484 C45.6423046,286.646484 46.1950334,286.193364 46.1950334,285.287109 C46.1950334,284.423824 45.6227735,283.992188 44.4782365,283.992188 C44.2712043,283.992188 44.0426909,284.012695 43.7926897,284.053711 C43.5426884,284.094727 43.3395655,284.138672 43.1833147,284.185547 L42.4626115,283.798828 L42.7848772,279.433594 L47.4313615,279.433594 L47.4313615,280.96875 L44.3727678,280.96875 L44.2145647,282.650391 L44.4196428,282.609375 C44.6579252,282.554687 44.9528442,282.527344 45.3044084,282.527344 Z" id="55" fill="#CACCCD"></path>
                    <path d="M38.9570312,118 L37.1464844,118 L37.1464844,113.042969 L37.1640625,112.228516 L37.1933594,111.337891 C36.8925766,111.638673 36.6835943,111.835937 36.5664062,111.929688 L35.5820312,112.720703 L34.7089844,111.630859 L37.46875,109.433594 L38.9570312,109.433594 L38.9570312,118 Z M47.8415178,111.349609 C47.8415178,111.884768 47.67941,112.339842 47.3551897,112.714844 C47.0309693,113.089846 46.5758957,113.347656 45.9899553,113.488281 L45.9899553,113.523438 C46.681365,113.609375 47.2047973,113.819334 47.5602678,114.15332 C47.9157383,114.487306 48.0934709,114.937497 48.0934709,115.503906 C48.0934709,116.328129 47.7946458,116.969724 47.1969865,117.428711 C46.5993273,117.887698 45.7458202,118.117188 44.6364397,118.117188 C43.7067475,118.117188 42.882537,117.962892 42.1637834,117.654297 L42.1637834,116.113281 C42.4958163,116.281251 42.8610471,116.417968 43.2594865,116.523438 C43.657926,116.628907 44.0524533,116.681641 44.4430803,116.681641 C45.0407395,116.681641 45.4821414,116.580079 45.767299,116.376953 C46.0524567,116.173827 46.1950334,115.847658 46.1950334,115.398438 C46.1950334,114.996092 46.0309726,114.710938 45.7028459,114.542969 C45.3747193,114.374999 44.851287,114.291016 44.1325334,114.291016 L43.4821428,114.291016 L43.4821428,112.902344 L44.1442522,112.902344 C44.808318,112.902344 45.2936647,112.815431 45.6003069,112.641602 C45.906949,112.467773 46.0602678,112.169924 46.0602678,111.748047 C46.0602678,111.099606 45.6540219,110.775391 44.8415178,110.775391 C44.5602664,110.775391 44.2741364,110.822265 43.9831194,110.916016 C43.6921023,111.009766 43.3688633,111.171874 43.0133928,111.402344 L42.1755022,110.154297 C42.9567561,109.591794 43.8883874,109.310547 44.970424,109.310547 C45.8571472,109.310547 46.5573355,109.490233 47.07101,109.849609 C47.5846844,110.208986 47.8415178,110.708981 47.8415178,111.349609 Z M55.8353793,113.716797 C55.8353793,115.212898 55.5902646,116.320309 55.1000278,117.039062 C54.609791,117.757816 53.8549157,118.117188 52.8353793,118.117188 C51.8470932,118.117188 51.1019834,117.746097 50.6000278,117.003906 C50.0980722,116.261715 49.8470981,115.166023 49.8470981,113.716797 C49.8470981,112.205071 50.0912363,111.090824 50.57952,110.374023 C51.0678037,109.657223 51.8197493,109.298828 52.8353793,109.298828 C53.8236655,109.298828 54.5707284,109.673824 55.0765903,110.423828 C55.5824522,111.173832 55.8353793,112.271477 55.8353793,113.716797 Z M51.6459262,113.716797 C51.6459262,114.767583 51.7367456,115.520506 51.9183872,115.975586 C52.1000287,116.430666 52.4056897,116.658203 52.8353793,116.658203 C53.2572565,116.658203 53.5619409,116.427737 53.7494418,115.966797 C53.9369428,115.505857 54.0306918,114.755865 54.0306918,113.716797 C54.0306918,112.66601 53.9359662,111.911135 53.7465122,111.452148 C53.5570581,110.993162 53.2533502,110.763672 52.8353793,110.763672 C52.409596,110.763672 52.1049115,110.993162 51.9213168,111.452148 C51.7377222,111.911135 51.6459262,112.66601 51.6459262,113.716797 Z" id="130" fill="#CACCCD"></path>
                </g>
            </g>
        </g>
    </g>
</svg>
