<?xml version="1.0" encoding="UTF-8"?>
<svg width="689px" height="694px" viewBox="0 0 689 694" version="1.1" xmlns="http://www.w3.org/2000/svg" xmlns:xlink="http://www.w3.org/1999/xlink">
    <!-- Generator: Sketch 47.1 (45422) - http://www.bohemiancoding.com/sketch -->
    <title>Group 2</title>
    <desc>Created with Sketch.</desc>
    <defs>
        <linearGradient x1="72.5907407%" y1="40.5092967%" x2="78.6475309%" y2="100%" id="linearGradient-1">
            <stop stop-color="#F2DC60" offset="0%"></stop>
            <stop stop-color="#F3CD62" offset="100%"></stop>
        </linearGradient>
    </defs>
    <g id="Page-1" stroke="none" stroke-width="1" fill="none" fill-rule="evenodd">
        <g id="MONEY-SUPPLY" transform="translate(-60.000000, -61.000000)">
            <g id="Group-2" transform="translate(60.000000, 61.000000)">
                <g id="grid">
                    <rect id="Rectangle-5-Copy-4" fill="#D3D6D7" x="32" y="0" width="1" height="690"></rect>
                    <rect id="Rectangle-5-Copy-5" fill="#D3D6D7" x="241" y="0" width="1" height="693"></rect>
                    <rect id="Rectangle-5-Copy-6" fill="#D3D6D7" x="454" y="1" width="1" height="693"></rect>
                    <rect id="Rectangle-5-Copy-7" fill="#D3D6D7" x="665" y="0" width="1" height="372"></rect>
                    <g id="Group-10" transform="translate(0.000000, 59.000000)" fill="#CACCCD">
                        <path d="M1.33691406,13.1194821 C0.858396045,13.1194821 0.441408027,13.0693524 0.0859375,12.9690914 L0.0859375,11.2054196 C0.450522656,11.2965659 0.783201621,11.3421383 1.08398438,11.3421383 C1.54883045,11.3421383 1.88150941,11.1974458 2.08203125,10.9080563 C2.28255309,10.6186668 2.3828125,10.1663601 2.3828125,9.55112269 L2.3828125,0.185888319 L4.50195312,0.185888319 L4.50195312,9.53745082 C4.50195312,10.7041233 4.23535423,11.5927863 3.70214844,12.2034664 C3.16894265,12.8141466 2.38053907,13.1194821 1.33691406,13.1194821 Z M14.1357422,10.1800289 L13.4111328,7.80112269 L9.76757812,7.80112269 L9.04296875,10.1800289 L6.75976562,10.1800289 L10.2871094,0.144872694 L12.8779297,0.144872694 L16.4189453,10.1800289 L14.1357422,10.1800289 Z M12.9052734,6.02377894 C12.2353482,3.86816921 11.8582361,2.64910588 11.7739258,2.36655238 C11.6896155,2.08399888 11.629232,1.86069383 11.5927734,1.69663051 C11.4423821,2.27996676 11.0117223,3.72233514 10.3007812,6.02377894 L12.9052734,6.02377894 Z M27.5429688,10.1800289 L24.8496094,10.1800289 L20.5019531,2.61948207 L20.4404297,2.61948207 C20.5270187,3.9547752 20.5703125,4.90723964 20.5703125,5.47690394 L20.5703125,10.1800289 L18.6767578,10.1800289 L18.6767578,0.185888319 L21.3496094,0.185888319 L25.6904297,7.67123988 L25.7382812,7.67123988 C25.6699215,6.37240526 25.6357422,5.45412017 25.6357422,4.91635707 L25.6357422,0.185888319 L27.5429688,0.185888319 L27.5429688,10.1800289 Z M40.2207031,10.1800289 L38.1083984,10.1800289 L38.1083984,4.39682582 L38.1289062,3.44663051 L38.1630859,2.40756801 C37.8121727,2.75848122 37.5683601,2.98862215 37.4316406,3.09799769 L36.2832031,4.02084926 L35.2646484,2.74936488 L38.484375,0.185888319 L40.2207031,0.185888319 L40.2207031,10.1800289 Z M43.9208984,5.93491176 C43.9208984,3.95703728 44.3390258,2.4850468 45.175293,1.51889613 C46.0115602,0.552745467 47.2636635,0.0696773811 48.9316406,0.0696773811 C49.5013049,0.0696773811 49.947915,0.103856727 50.2714844,0.172216444 L50.2714844,1.86069301 C49.8658834,1.76954672 49.4648457,1.72397426 49.0683594,1.72397426 C48.3437464,1.72397426 47.7524437,1.83334816 47.2944336,2.05209926 C46.8364235,2.27085035 46.4934907,2.59441482 46.265625,3.02280238 C46.0377593,3.45118994 45.9033205,4.05958229 45.8623047,4.84799769 L45.9511719,4.84799769 C46.402346,4.07325424 47.1246695,3.68588832 48.1181641,3.68588832 C49.0113977,3.68588832 49.710935,3.96615895 50.2167969,4.52670863 C50.7226588,5.08725831 50.9755859,5.86199014 50.9755859,6.85092738 C50.9755859,7.91733896 50.6748077,8.7615688 50.0732422,9.38364222 C49.4716767,10.0057156 48.6377006,10.3167477 47.5712891,10.3167477 C46.8330041,10.3167477 46.1892931,10.145851 45.6401367,9.80405238 C45.0909803,9.4622538 44.6671564,8.96323535 44.3686523,8.30698207 C44.0701482,7.65072879 43.9208984,6.86004659 43.9208984,5.93491176 Z M47.5302734,8.62827113 C47.9814476,8.62827113 48.3277983,8.4767427 48.5693359,8.17368129 C48.8108736,7.87061988 48.9316406,7.43882081 48.9316406,6.87827113 C48.9316406,6.39063848 48.8188488,6.0066905 48.5932617,5.72641566 C48.3676747,5.44614082 48.0270205,5.30600551 47.5712891,5.30600551 C47.1429015,5.30600551 46.7771825,5.44500151 46.4741211,5.72299769 C46.1710597,6.00099388 46.0195312,6.32455835 46.0195312,6.69370082 C46.0195312,7.23602124 46.1619452,7.69402447 46.4467773,8.06772426 C46.7316095,8.44142404 47.0927712,8.62827113 47.5302734,8.62827113 Z M55.1953125,0.185888319 L55.2910156,0.336278944 C55.0631499,1.23406989 54.6621122,2.32553033 54.0878906,3.61069301 L52.5908203,3.61069301 C52.905275,2.26172793 53.1331373,1.12013778 53.2744141,0.185888319 L55.1953125,0.185888319 Z" id="JAN-16’"></path>
                        <path d="M209.461914,13.1194821 C208.983396,13.1194821 208.566408,13.0693524 208.210938,12.9690914 L208.210938,11.2054196 C208.575523,11.2965659 208.908202,11.3421383 209.208984,11.3421383 C209.67383,11.3421383 210.006509,11.1974458 210.207031,10.9080563 C210.407553,10.6186668 210.507812,10.1663601 210.507812,9.55112269 L210.507812,0.185888319 L212.626953,0.185888319 L212.626953,9.53745082 C212.626953,10.7041233 212.360354,11.5927863 211.827148,12.2034664 C211.293943,12.8141466 210.505539,13.1194821 209.461914,13.1194821 Z M224.277344,0.185888319 L224.277344,6.65268519 C224.277344,7.39097013 224.112144,8.03809908 223.781738,8.59409144 C223.451333,9.15008381 222.973961,9.57618632 222.349609,9.87241176 C221.725257,10.1686372 220.986983,10.3167477 220.134766,10.3167477 C218.849603,10.3167477 217.851566,9.98748666 217.140625,9.32895472 C216.429684,8.67042279 216.074219,7.76922737 216.074219,6.62534144 L216.074219,0.185888319 L218.186523,0.185888319 L218.186523,6.30405238 C218.186523,7.07423852 218.34147,7.63933704 218.651367,7.99936488 C218.961265,8.35939272 219.473955,8.53940394 220.189453,8.53940394 C220.882165,8.53940394 221.384601,8.35825341 221.696777,7.99594691 C222.008953,7.63364041 222.165039,7.06512396 222.165039,6.29038051 L222.165039,0.185888319 L224.277344,0.185888319 Z M236.59082,10.1800289 L233.897461,10.1800289 L229.549805,2.61948207 L229.488281,2.61948207 C229.57487,3.9547752 229.618164,4.90723964 229.618164,5.47690394 L229.618164,10.1800289 L227.724609,10.1800289 L227.724609,0.185888319 L230.397461,0.185888319 L234.738281,7.67123988 L234.786133,7.67123988 C234.717773,6.37240526 234.683594,5.45412017 234.683594,4.91635707 L234.683594,0.185888319 L236.59082,0.185888319 L236.59082,10.1800289 Z M249.268555,10.1800289 L247.15625,10.1800289 L247.15625,4.39682582 L247.176758,3.44663051 L247.210938,2.40756801 C246.860024,2.75848122 246.616212,2.98862215 246.479492,3.09799769 L245.331055,4.02084926 L244.3125,2.74936488 L247.532227,0.185888319 L249.268555,0.185888319 L249.268555,10.1800289 Z M252.96875,5.93491176 C252.96875,3.95703728 253.386877,2.4850468 254.223145,1.51889613 C255.059412,0.552745467 256.311515,0.0696773811 257.979492,0.0696773811 C258.549156,0.0696773811 258.995767,0.103856727 259.319336,0.172216444 L259.319336,1.86069301 C258.913735,1.76954672 258.512697,1.72397426 258.116211,1.72397426 C257.391598,1.72397426 256.800295,1.83334816 256.342285,2.05209926 C255.884275,2.27085035 255.541342,2.59441482 255.313477,3.02280238 C255.085611,3.45118994 254.951172,4.05958229 254.910156,4.84799769 L254.999023,4.84799769 C255.450198,4.07325424 256.172521,3.68588832 257.166016,3.68588832 C258.059249,3.68588832 258.758787,3.96615895 259.264648,4.52670863 C259.77051,5.08725831 260.023438,5.86199014 260.023438,6.85092738 C260.023438,7.91733896 259.722659,8.7615688 259.121094,9.38364222 C258.519528,10.0057156 257.685552,10.3167477 256.619141,10.3167477 C255.880856,10.3167477 255.237145,10.145851 254.687988,9.80405238 C254.138832,9.4622538 253.715008,8.96323535 253.416504,8.30698207 C253.118,7.65072879 252.96875,6.86004659 252.96875,5.93491176 Z M256.578125,8.62827113 C257.029299,8.62827113 257.37565,8.4767427 257.617188,8.17368129 C257.858725,7.87061988 257.979492,7.43882081 257.979492,6.87827113 C257.979492,6.39063848 257.8667,6.0066905 257.641113,5.72641566 C257.415526,5.44614082 257.074872,5.30600551 256.619141,5.30600551 C256.190753,5.30600551 255.825034,5.44500151 255.521973,5.72299769 C255.218911,6.00099388 255.067383,6.32455835 255.067383,6.69370082 C255.067383,7.23602124 255.209797,7.69402447 255.494629,8.06772426 C255.779461,8.44142404 256.140623,8.62827113 256.578125,8.62827113 Z M264.243164,0.185888319 L264.338867,0.336278944 C264.111001,1.23406989 263.709964,2.32553033 263.135742,3.61069301 L261.638672,3.61069301 C261.953127,2.26172793 262.180989,1.12013778 262.322266,0.185888319 L264.243164,0.185888319 Z" id="JuN-16’"></path>
                        <path d="M422.274414,13.1167324 C421.795896,13.1167324 421.378908,13.0666027 421.023437,12.9663418 L421.023437,11.2026699 C421.388023,11.2938162 421.720702,11.3393887 422.021484,11.3393887 C422.48633,11.3393887 422.819009,11.1946961 423.019531,10.9053066 C423.220053,10.6159172 423.320312,10.1636105 423.320312,9.54837306 L423.320312,0.18313868 L425.439453,0.18313868 L425.439453,9.53470118 C425.439453,10.7013737 425.172854,11.5900367 424.639648,12.2007168 C424.106443,12.8113969 423.318039,13.1167324 422.274414,13.1167324 Z M435.073242,10.1772793 L434.348633,7.79837306 L430.705078,7.79837306 L429.980469,10.1772793 L427.697266,10.1772793 L431.224609,0.142123055 L433.81543,0.142123055 L437.356445,10.1772793 L435.073242,10.1772793 Z M433.842773,6.02102931 C433.172848,3.86541957 432.795736,2.64635624 432.711426,2.36380274 C432.627115,2.08124925 432.566732,1.85794419 432.530273,1.69388087 C432.379882,2.27721712 431.949222,3.71958551 431.238281,6.02102931 L433.842773,6.02102931 Z M448.480469,10.1772793 L445.787109,10.1772793 L441.439453,2.61673243 L441.37793,2.61673243 C441.464519,3.95202557 441.507812,4.90449 441.507812,5.47415431 L441.507812,10.1772793 L439.614258,10.1772793 L439.614258,0.18313868 L442.287109,0.18313868 L446.62793,7.66849024 L446.675781,7.66849024 C446.607422,6.36965562 446.573242,5.45137054 446.573242,4.91360743 L446.573242,0.18313868 L448.480469,0.18313868 L448.480469,10.1772793 Z M461.158203,10.1772793 L459.045898,10.1772793 L459.045898,4.39407618 L459.066406,3.44388087 L459.100586,2.40481837 C458.749673,2.75573158 458.50586,2.98587251 458.369141,3.09524806 L457.220703,4.01809962 L456.202148,2.74661524 L459.421875,0.18313868 L461.158203,0.18313868 L461.158203,10.1772793 Z M465.917969,10.1772793 L469.670898,1.97415431 L464.742187,1.97415431 L464.742187,0.196810555 L471.913086,0.196810555 L471.913086,1.52298243 L468.132812,10.1772793 L465.917969,10.1772793 Z M476.132812,0.18313868 L476.228516,0.333529305 C476.00065,1.23132025 475.599612,2.32278069 475.025391,3.60794337 L473.52832,3.60794337 C473.842775,2.25897829 474.070637,1.11738814 474.211914,0.18313868 L476.132812,0.18313868 Z" id="Jan-17’"></path>
                        <path d="M633.211914,13.1167324 C632.733396,13.1167324 632.316408,13.0666027 631.960937,12.9663418 L631.960937,11.2026699 C632.325523,11.2938162 632.658202,11.3393887 632.958984,11.3393887 C633.42383,11.3393887 633.756509,11.1946961 633.957031,10.9053066 C634.157553,10.6159172 634.257812,10.1636105 634.257812,9.54837306 L634.257812,0.18313868 L636.376953,0.18313868 L636.376953,9.53470118 C636.376953,10.7013737 636.110354,11.5900367 635.577148,12.2007168 C635.043943,12.8113969 634.255539,13.1167324 633.211914,13.1167324 Z M648.027344,0.18313868 L648.027344,6.64993556 C648.027344,7.3882205 647.862144,8.03534944 647.531738,8.59134181 C647.201333,9.14733417 646.723961,9.57343668 646.099609,9.86966212 C645.475257,10.1658876 644.736983,10.3139981 643.884766,10.3139981 C642.599603,10.3139981 641.601566,9.98473703 640.890625,9.32620509 C640.179684,8.66767315 639.824219,7.76647773 639.824219,6.62259181 L639.824219,0.18313868 L641.936523,0.18313868 L641.936523,6.30130274 C641.936523,7.07148889 642.09147,7.6365874 642.401367,7.99661524 C642.711265,8.35664308 643.223955,8.53665431 643.939453,8.53665431 C644.632165,8.53665431 645.134601,8.35550377 645.446777,7.99319727 C645.758953,7.63089078 645.915039,7.06237432 645.915039,6.28763087 L645.915039,0.18313868 L648.027344,0.18313868 Z M660.34082,10.1772793 L657.647461,10.1772793 L653.299805,2.61673243 L653.238281,2.61673243 C653.32487,3.95202557 653.368164,4.90449 653.368164,5.47415431 L653.368164,10.1772793 L651.474609,10.1772793 L651.474609,0.18313868 L654.147461,0.18313868 L658.488281,7.66849024 L658.536133,7.66849024 C658.467773,6.36965562 658.433594,5.45137054 658.433594,4.91360743 L658.433594,0.18313868 L660.34082,0.18313868 L660.34082,10.1772793 Z M673.018555,10.1772793 L670.90625,10.1772793 L670.90625,4.39407618 L670.926758,3.44388087 L670.960937,2.40481837 C670.610024,2.75573158 670.366212,2.98587251 670.229492,3.09524806 L669.081055,4.01809962 L668.0625,2.74661524 L671.282227,0.18313868 L673.018555,0.18313868 L673.018555,10.1772793 Z M677.77832,10.1772793 L681.53125,1.97415431 L676.602539,1.97415431 L676.602539,0.196810555 L683.773437,0.196810555 L683.773437,1.52298243 L679.993164,10.1772793 L677.77832,10.1772793 Z M687.993164,0.18313868 L688.088867,0.333529305 C687.861001,1.23132025 687.459964,2.32278069 686.885742,3.60794337 L685.388672,3.60794337 C685.703127,2.25897829 685.930989,1.11738814 686.072266,0.18313868 L687.993164,0.18313868 Z" id="Jun-17’"></path>
                    </g>
                </g>
                <g id="money-supply-graph" transform="translate(6.000000, 118.000000)">
                    <g id="Group-10" transform="translate(22.000000, 173.000000)">
                        <g id="Group" transform="translate(3.430000, 4.585500)" fill="url(#linearGradient-1)">
                            <polygon id="Path-4-Copy" points="0 396.299998 0.0700001645 334.4145 42.5700002 268.4145 84.5700002 208.4145 127.57 183.9145 169.07 176.4145 211.57 134.4145 254.07 111.4145 296.07 102.4145 338.57 90.9145002 381.07 83.9145002 423.07 83.9145002 465.57 78.9145002 508.07 71.9145002 550.07 63.4145002 592.57 51.9145002 635.07 0.41450025 634.837498 396.299998"></polygon>
                        </g>
                        <g id="point" transform="translate(0.000000, 334.000000)" fill="#4C4F57">
                            <circle id="Oval" cx="4" cy="4" r="3.2"></circle>
                        </g>
                        <g id="point" transform="translate(42.000000, 269.000000)" fill="#4C4F57">
                            <circle id="Oval" cx="4" cy="4" r="3.2"></circle>
                        </g>
                        <g id="point" transform="translate(84.000000, 209.000000)" fill="#4C4F57">
                            <circle id="Oval" cx="4" cy="4" r="3.2"></circle>
                        </g>
                        <g id="point" transform="translate(127.000000, 184.000000)" fill="#4C4F57">
                            <circle id="Oval" cx="4" cy="4" r="3.2"></circle>
                        </g>
                        <g id="point" transform="translate(169.000000, 176.000000)" fill="#4C4F57">
                            <circle id="Oval" cx="4" cy="4" r="3.2"></circle>
                        </g>
                        <g id="point" transform="translate(210.000000, 136.000000)" fill="#4C4F57">
                            <circle id="Oval" cx="4" cy="4" r="3.2"></circle>
                        </g>
                        <g id="point" transform="translate(254.000000, 112.000000)" fill="#4C4F57">
                            <circle id="Oval" cx="4" cy="4" r="3.2"></circle>
                        </g>
                        <g id="point" transform="translate(296.000000, 103.000000)" fill="#4C4F57">
                            <circle id="Oval" cx="4" cy="4" r="3.2"></circle>
                        </g>
                        <g id="point" transform="translate(338.000000, 91.000000)" fill="#4C4F57">
                            <circle id="Oval" cx="4" cy="4" r="3.2"></circle>
                        </g>
                        <g id="point" transform="translate(381.000000, 85.000000)" fill="#4C4F57">
                            <circle id="Oval" cx="4" cy="4" r="3.2"></circle>
                        </g>
                        <g id="point" transform="translate(423.000000, 84.000000)" fill="#4C4F57">
                            <circle id="Oval" cx="4" cy="4" r="3.2"></circle>
                        </g>
                        <g id="point" transform="translate(466.000000, 79.000000)" fill="#4C4F57">
                            <circle id="Oval" cx="4" cy="4" r="3.2"></circle>
                        </g>
                        <g id="point" transform="translate(508.000000, 72.000000)" fill="#4C4F57">
                            <circle id="Oval" cx="4" cy="4" r="3.2"></circle>
                        </g>
                        <g id="point" transform="translate(550.000000, 63.000000)" fill="#4C4F57">
                            <circle id="Oval" cx="4" cy="4" r="3.2"></circle>
                        </g>
                        <g id="point" transform="translate(592.000000, 52.000000)" fill="#4C4F57">
                            <circle id="Oval" cx="4" cy="4" r="3.2"></circle>
                        </g>
                        <g id="point" transform="translate(635.000000, 0.000000)" fill="#4C4F57">
                            <circle id="Oval" cx="4" cy="4" r="3.2"></circle>
                        </g>
                    </g>
                    <path d="M-42.6210938,90.5 L-43.7519531,90.5 L-46.0546875,86.7324219 L-48.3984375,90.5 L-49.453125,90.5 L-46.6054688,86.0234375 L-49.2597656,81.9335938 L-48.1582031,81.9335938 L-46.03125,85.3261719 L-43.8867188,81.9335938 L-42.8261719,81.9335938 L-45.4804688,85.9882812 L-42.6210938,90.5 Z M-34.0117188,90.5 L-35.078125,87.7753906 L-38.5117188,87.7753906 L-39.5664062,90.5 L-40.5742188,90.5 L-37.1875,81.8984375 L-36.3496094,81.8984375 L-32.9804688,90.5 L-34.0117188,90.5 Z M-35.3886719,86.8789062 L-36.3847656,84.2246094 C-36.5136725,83.8886702 -36.6464837,83.4765649 -36.7832031,82.9882812 C-36.8691411,83.3632831 -36.9921867,83.7753884 -37.1523438,84.2246094 L-38.1601562,86.8789062 L-35.3886719,86.8789062 Z M-23.3339844,81.9335938 L-23.3339844,87.4765625 C-23.3339844,88.4531299 -23.6289033,89.2207003 -24.21875,89.7792969 C-24.8085967,90.3378934 -25.6191355,90.6171875 -26.6503906,90.6171875 C-27.6816458,90.6171875 -28.4794894,90.3359403 -29.0439453,89.7734375 C-29.6084013,89.2109347 -29.890625,88.4375049 -29.890625,87.453125 L-29.890625,81.9335938 L-28.8945312,81.9335938 L-28.8945312,87.5234375 C-28.8945312,88.2382848 -28.6992207,88.7871075 -28.3085938,89.1699219 C-27.9179668,89.5527363 -27.3437538,89.7441406 -26.5859375,89.7441406 C-25.8632776,89.7441406 -25.3066426,89.5517597 -24.9160156,89.1669922 C-24.5253887,88.7822246 -24.3300781,88.2304723 -24.3300781,87.5117188 L-24.3300781,81.9335938 L-23.3339844,81.9335938 Z M-18.0703125,86.9375 L-18.0703125,90.5 L-19.0664062,90.5 L-19.0664062,81.9335938 L-16.7167969,81.9335938 C-15.6660104,81.9335938 -14.8896509,82.1347636 -14.3876953,82.5371094 C-13.8857397,82.9394551 -13.6347656,83.5449178 -13.6347656,84.3535156 C-13.6347656,85.4863338 -14.2089786,86.2519511 -15.3574219,86.6503906 L-13.03125,90.5 L-14.2089844,90.5 L-16.2832031,86.9375 L-18.0703125,86.9375 Z M-18.0703125,86.0820312 L-16.7050781,86.0820312 C-16.0019496,86.0820312 -15.4863298,85.9423842 -15.1582031,85.6630859 C-14.8300765,85.3837877 -14.6660156,84.9648465 -14.6660156,84.40625 C-14.6660156,83.8398409 -14.8330061,83.4316419 -15.1669922,83.1816406 C-15.5009782,82.9316394 -16.0371057,82.8066406 -16.7753906,82.8066406 L-18.0703125,82.8066406 L-18.0703125,86.0820312 Z M-5.22851562,87.2128906 C-5.22851562,86.1777292 -5.07714995,85.2089889 -4.77441406,84.3066406 C-4.47167817,83.4042924 -4.0351591,82.6132846 -3.46484375,81.9335938 L-2.515625,81.9335938 C-3.07812781,82.6875038 -3.50097515,83.5156205 -3.78417969,84.4179688 C-4.06738423,85.320317 -4.20898438,86.2480421 -4.20898438,87.2011719 C-4.20898438,88.1386766 -4.06445457,89.054683 -3.77539062,89.9492188 C-3.48632668,90.8437545 -3.07031521,91.6601526 -2.52734375,92.3984375 L-3.46484375,92.3984375 C-4.03906537,91.7343717 -4.476561,90.9589888 -4.77734375,90.0722656 C-5.0781265,89.1855424 -5.22851562,88.232427 -5.22851562,87.2128906 Z M4.81054688,90.5 L1.90429688,82.90625 L1.85742188,82.90625 C1.91210965,83.5078155 1.93945312,84.2226521 1.93945312,85.0507812 L1.93945312,90.5 L1.01953125,90.5 L1.01953125,81.9335938 L2.51953125,81.9335938 L5.23242188,89 L5.27929688,89 L8.015625,81.9335938 L9.50390625,81.9335938 L9.50390625,90.5 L8.5078125,90.5 L8.5078125,84.9804688 C8.5078125,84.3476531 8.53515598,83.66016 8.58984375,82.9179688 L8.54296875,82.9179688 L5.61328125,90.5 L4.81054688,90.5 Z M13.8535156,90.5 L13.8535156,81.9335938 L14.8496094,81.9335938 L14.8496094,90.5 L13.8535156,90.5 Z M19.1992188,90.5 L19.1992188,81.9335938 L20.1953125,81.9335938 L20.1953125,89.5976562 L23.9746094,89.5976562 L23.9746094,90.5 L19.1992188,90.5 Z M27.4277344,90.5 L27.4277344,81.9335938 L28.4238281,81.9335938 L28.4238281,89.5976562 L32.203125,89.5976562 L32.203125,90.5 L27.4277344,90.5 Z M35.65625,90.5 L35.65625,81.9335938 L36.6523438,81.9335938 L36.6523438,90.5 L35.65625,90.5 Z M48.4375,86.2050781 C48.4375,87.5761787 48.0908238,88.6542929 47.3974609,89.4394531 C46.7040981,90.2246133 45.7402405,90.6171875 44.5058594,90.6171875 C43.2441343,90.6171875 42.2705112,90.2314492 41.5849609,89.4599609 C40.8994106,88.6884727 40.5566406,87.5996164 40.5566406,86.1933594 C40.5566406,84.7988212 40.9003872,83.7177773 41.5878906,82.9501953 C42.2753941,82.1826133 43.2519468,81.7988281 44.5175781,81.7988281 C45.748053,81.7988281 46.7089809,82.1894492 47.4003906,82.9707031 C48.0918003,83.751957 48.4375,84.8300713 48.4375,86.2050781 Z M41.6113281,86.2050781 C41.6113281,87.3652402 41.858396,88.2451142 42.3525391,88.8447266 C42.8466822,89.4443389 43.5644484,89.7441406 44.5058594,89.7441406 C45.4550829,89.7441406 46.1718726,89.4453155 46.65625,88.8476562 C47.1406274,88.249997 47.3828125,87.3691464 47.3828125,86.2050781 C47.3828125,85.0527286 47.141604,84.1787139 46.6591797,83.5830078 C46.1767554,82.9873017 45.4628954,82.6894531 44.5175781,82.6894531 C43.5683546,82.6894531 42.8466822,82.9892548 42.3525391,83.5888672 C41.858396,84.1884796 41.6113281,85.0605412 41.6113281,86.2050781 Z M59.0390625,90.5 L57.9023438,90.5 L53.2207031,83.3105469 L53.1738281,83.3105469 C53.2363284,84.1543011 53.2675781,84.9277309 53.2675781,85.6308594 L53.2675781,90.5 L52.3476562,90.5 L52.3476562,81.9335938 L53.4726562,81.9335938 L58.1425781,89.09375 L58.1894531,89.09375 C58.1816406,88.9882807 58.1640626,88.6494169 58.1367188,88.0771484 C58.1093749,87.50488 58.0996093,87.0957044 58.1074219,86.8496094 L58.1074219,81.9335938 L59.0390625,81.9335938 L59.0390625,90.5 Z M68.2285156,88.2207031 C68.2285156,88.9746131 67.9550809,89.5624979 67.4082031,89.984375 C66.8613254,90.4062521 66.1191453,90.6171875 65.1816406,90.6171875 C64.1660105,90.6171875 63.3847684,90.4863294 62.8378906,90.2246094 L62.8378906,89.2636719 C63.1894549,89.4121101 63.5722636,89.5292964 63.9863281,89.6152344 C64.4003927,89.7011723 64.8105448,89.7441406 65.2167969,89.7441406 C65.8808627,89.7441406 66.3808577,89.6181653 66.7167969,89.3662109 C67.0527361,89.1142566 67.2207031,88.7636741 67.2207031,88.3144531 C67.2207031,88.0175766 67.1611334,87.774415 67.0419922,87.5849609 C66.922851,87.3955069 66.7236342,87.2207039 66.4443359,87.0605469 C66.1650377,86.9003898 65.7402372,86.718751 65.1699219,86.515625 C64.3730429,86.2304673 63.8037126,85.8925801 63.4619141,85.5019531 C63.1201155,85.1113262 62.9492188,84.6015656 62.9492188,83.9726562 C62.9492188,83.3124967 63.1972631,82.7871113 63.6933594,82.3964844 C64.1894556,82.0058574 64.845699,81.8105469 65.6621094,81.8105469 C66.5136761,81.8105469 67.2968714,81.9667953 68.0117188,82.2792969 L67.7011719,83.1464844 C66.9941371,82.8496079 66.306644,82.7011719 65.6386719,82.7011719 C65.1113255,82.7011719 64.6992202,82.814452 64.4023438,83.0410156 C64.1054673,83.2675793 63.9570312,83.5820292 63.9570312,83.984375 C63.9570312,84.2812515 64.0117182,84.5244131 64.1210938,84.7138672 C64.2304693,84.9033213 64.4150378,85.0771476 64.6748047,85.2353516 C64.9345716,85.3935555 65.3320286,85.5683584 65.8671875,85.7597656 C66.7656295,86.0800797 67.3837874,86.4238263 67.7216797,86.7910156 C68.059572,87.158205 68.2285156,87.6347627 68.2285156,88.2207031 Z M73.8730469,87.2128906 C73.8730469,88.2402395 73.7216812,89.1972612 73.4189453,90.0839844 C73.1162094,90.9707076 72.6796904,91.7421842 72.109375,92.3984375 L71.171875,92.3984375 C71.7148465,91.6640588 72.1308579,90.8486373 72.4199219,89.9521484 C72.7089858,89.0556596 72.8535156,88.1386766 72.8535156,87.2011719 C72.8535156,86.2480421 72.7119155,85.320317 72.4287109,84.4179688 C72.1455064,83.5156205 71.7226591,82.6875038 71.1601562,81.9335938 L72.109375,81.9335938 C72.6835966,82.6171909 73.1210922,83.4111283 73.421875,84.3154297 C73.7226578,85.2197311 73.8730469,86.1855417 73.8730469,87.2128906 Z" id="XAUR-(MILLIONS)" fill="#191F26" transform="translate(12.209961, 87.098633) rotate(-90.000000) translate(-12.209961, -87.098633) "></path>
                    <path d="M12.4453125,9.0546875 C12.3046868,8.9140618 12.3046868,8.7734382 12.4453125,8.6328125 L14.8007812,6.03125 L4.78125,6.03125 C4.59374906,6.03125 4.5,5.93750094 4.5,5.75 C4.5,5.56249906 4.59374906,5.46875 4.78125,5.46875 L14.8007812,5.46875 L12.4453125,2.8671875 C12.3046868,2.7265618 12.3046868,2.5859382 12.4453125,2.4453125 C12.5859382,2.3046868 12.7265618,2.3046868 12.8671875,2.4453125 C14.7187593,4.4843852 15.6562499,5.51562488 15.6796875,5.5390625 C15.7265627,5.58593773 15.75,5.65624953 15.75,5.75 C15.75,5.84375047 15.7265627,5.91406227 15.6796875,5.9609375 L12.8671875,9.0546875 C12.8203123,9.10156273 12.7500005,9.125 12.65625,9.125 C12.5624995,9.125 12.4921877,9.10156273 12.4453125,9.0546875 Z" id="ion-ios-arrow-thin-right---Ionicons" stroke="#191F26" stroke-width="3" fill="#191F26" transform="translate(10.125000, 5.732422) rotate(-90.000000) translate(-10.125000, -5.732422) "></path>
                    <path d="M6.46875,509 L0.48046875,509 L0.48046875,507.740234 L2.63085938,505.566406 C3.26758131,504.914059 3.68359277,504.461915 3.87890625,504.209961 C4.07421973,503.958007 4.21484332,503.72461 4.30078125,503.509766 C4.38671918,503.294921 4.4296875,503.072267 4.4296875,502.841797 C4.4296875,502.498045 4.33496188,502.242188 4.14550781,502.074219 C3.95605374,501.906249 3.70312658,501.822266 3.38671875,501.822266 C3.05468584,501.822266 2.73242344,501.898437 2.41992188,502.050781 C2.10742031,502.203126 1.7812517,502.41992 1.44140625,502.701172 L0.45703125,501.535156 C0.878908359,501.175779 1.22851424,500.921876 1.50585938,500.773438 C1.78320451,500.624999 2.08593586,500.510743 2.4140625,500.430664 C2.74218914,500.350586 3.10937297,500.310547 3.515625,500.310547 C4.05078393,500.310547 4.52343545,500.408202 4.93359375,500.603516 C5.34375205,500.798829 5.66210824,501.072264 5.88867188,501.423828 C6.11523551,501.775392 6.22851563,502.177732 6.22851563,502.630859 C6.22851563,503.025393 6.15918038,503.395506 6.02050781,503.741211 C5.88183524,504.086916 5.66699364,504.441404 5.37597656,504.804688 C5.08495948,505.167971 4.5722693,505.685544 3.83789063,506.357422 L2.73632813,507.394531 L2.73632813,507.476562 L6.46875,507.476562 L6.46875,509 Z M14.1286272,504.716797 C14.1286272,506.212898 13.8835124,507.320309 13.3932756,508.039062 C12.9030388,508.757816 12.1481635,509.117188 11.1286272,509.117188 C10.140341,509.117188 9.39523125,508.746097 8.89327561,508.003906 C8.39131998,507.261715 8.14034592,506.166023 8.14034592,504.716797 C8.14034592,503.205071 8.38448411,502.090824 8.8727678,501.374023 C9.36105149,500.657223 10.1129971,500.298828 11.1286272,500.298828 C12.1169134,500.298828 12.8639762,500.673824 13.3698381,501.423828 C13.8757,502.173832 14.1286272,503.271477 14.1286272,504.716797 Z M9.93917405,504.716797 C9.93917405,505.767583 10.0299935,506.520506 10.211635,506.975586 C10.3932765,507.430666 10.6989375,507.658203 11.1286272,507.658203 C11.5505043,507.658203 11.8551887,507.427737 12.0426897,506.966797 C12.2301906,506.505857 12.3239397,505.755865 12.3239397,504.716797 C12.3239397,503.66601 12.2292141,502.911135 12.03976,502.452148 C11.8503059,501.993162 11.546598,501.763672 11.1286272,501.763672 C10.7028438,501.763672 10.3981593,501.993162 10.2145647,502.452148 C10.03097,502.911135 9.93917405,503.66601 9.93917405,504.716797 Z" id="20" fill="#CACCCD"></path>
                    <path d="M44.6621094,448.224609 L43.6308594,448.224609 L43.6308594,450 L41.8613281,450 L41.8613281,448.224609 L38.2050781,448.224609 L38.2050781,446.964844 L41.9609375,441.433594 L43.6308594,441.433594 L43.6308594,446.818359 L44.6621094,446.818359 L44.6621094,448.224609 Z M41.8613281,446.818359 L41.8613281,445.365234 C41.8613281,445.123046 41.8710937,444.771487 41.890625,444.310547 C41.9101563,443.849607 41.9257812,443.582032 41.9375,443.507812 L41.890625,443.507812 C41.746093,443.828127 41.5722666,444.140623 41.3691406,444.445312 L39.7988281,446.818359 L41.8613281,446.818359 Z M52.1286272,445.716797 C52.1286272,447.212898 51.8835124,448.320309 51.3932756,449.039062 C50.9030388,449.757816 50.1481635,450.117188 49.1286272,450.117188 C48.140341,450.117188 47.3952312,449.746097 46.8932756,449.003906 C46.39132,448.261715 46.1403459,447.166023 46.1403459,445.716797 C46.1403459,444.205071 46.3844841,443.090824 46.8727678,442.374023 C47.3610515,441.657223 48.1129971,441.298828 49.1286272,441.298828 C50.1169134,441.298828 50.8639762,441.673824 51.3698381,442.423828 C51.8757,443.173832 52.1286272,444.271477 52.1286272,445.716797 Z M47.9391741,445.716797 C47.9391741,446.767583 48.0299935,447.520506 48.211635,447.975586 C48.3932765,448.430666 48.6989375,448.658203 49.1286272,448.658203 C49.5505043,448.658203 49.8551887,448.427737 50.0426897,447.966797 C50.2301906,447.505857 50.3239397,446.755865 50.3239397,445.716797 C50.3239397,444.66601 50.2292141,443.911135 50.03976,443.452148 C49.8503059,442.993162 49.546598,442.763672 49.1286272,442.763672 C48.7028438,442.763672 48.3981593,442.993162 48.2145647,443.452148 C48.03097,443.911135 47.9391741,444.66601 47.9391741,445.716797 Z" id="40" fill="#CACCCD"></path>
                    <path d="M38.421875,393.361328 C38.421875,391.666007 38.7802699,390.404301 39.4970703,389.576172 C40.2138708,388.748043 41.2871022,388.333984 42.7167969,388.333984 C43.2050806,388.333984 43.5878892,388.363281 43.8652344,388.421875 L43.8652344,389.869141 C43.5175764,389.791015 43.1738298,389.751953 42.8339844,389.751953 C42.2128875,389.751953 41.7060567,389.845702 41.3134766,390.033203 C40.9208965,390.220704 40.6269541,390.498045 40.4316406,390.865234 C40.2363271,391.232424 40.1210939,391.753903 40.0859375,392.429688 L40.1621094,392.429688 C40.5488301,391.765622 41.1679645,391.433594 42.0195312,391.433594 C42.7851601,391.433594 43.3847635,391.673826 43.8183594,392.154297 C44.2519553,392.634768 44.46875,393.298824 44.46875,394.146484 C44.46875,395.060551 44.2109401,395.784177 43.6953125,396.317383 C43.1796849,396.850589 42.4648483,397.117188 41.5507812,397.117188 C40.9179656,397.117188 40.3662133,396.970705 39.8955078,396.677734 C39.4248023,396.384764 39.0615247,395.957034 38.8056641,395.394531 C38.5498034,394.832028 38.421875,394.154301 38.421875,393.361328 Z M41.515625,395.669922 C41.9023457,395.669922 42.1992177,395.54004 42.40625,395.280273 C42.6132823,395.020507 42.7167969,394.650393 42.7167969,394.169922 C42.7167969,393.751951 42.6201182,393.422853 42.4267578,393.182617 C42.2333975,392.942382 41.9414082,392.822266 41.5507812,392.822266 C41.1835919,392.822266 40.8701185,392.941405 40.6103516,393.179688 C40.3505846,393.41797 40.2207031,393.695311 40.2207031,394.011719 C40.2207031,394.476565 40.3427722,394.869139 40.5869141,395.189453 C40.8310559,395.509767 41.1406231,395.669922 41.515625,395.669922 Z M52.1286272,392.716797 C52.1286272,394.212898 51.8835124,395.320309 51.3932756,396.039062 C50.9030388,396.757816 50.1481635,397.117188 49.1286272,397.117188 C48.140341,397.117188 47.3952312,396.746097 46.8932756,396.003906 C46.39132,395.261715 46.1403459,394.166023 46.1403459,392.716797 C46.1403459,391.205071 46.3844841,390.090824 46.8727678,389.374023 C47.3610515,388.657223 48.1129971,388.298828 49.1286272,388.298828 C50.1169134,388.298828 50.8639762,388.673824 51.3698381,389.423828 C51.8757,390.173832 52.1286272,391.271477 52.1286272,392.716797 Z M47.9391741,392.716797 C47.9391741,393.767583 48.0299935,394.520506 48.211635,394.975586 C48.3932765,395.430666 48.6989375,395.658203 49.1286272,395.658203 C49.5505043,395.658203 49.8551887,395.427737 50.0426897,394.966797 C50.2301906,394.505857 50.3239397,393.755865 50.3239397,392.716797 C50.3239397,391.66601 50.2292141,390.911135 50.03976,390.452148 C49.8503059,389.993162 49.546598,389.763672 49.1286272,389.763672 C48.7028438,389.763672 48.3981593,389.993162 48.2145647,390.452148 C48.03097,390.911135 47.9391741,391.66601 47.9391741,392.716797 Z" id="60" fill="#CACCCD"></path>
                    <path d="M41.4335938,335.322266 C42.2539104,335.322266 42.9150366,335.508787 43.4169922,335.881836 C43.9189478,336.254885 44.1699219,336.757809 44.1699219,337.390625 C44.1699219,337.828127 44.0488293,338.217772 43.8066406,338.55957 C43.5644519,338.901369 43.1738308,339.20703 42.6347656,339.476562 C43.2753938,339.820314 43.7353502,340.178709 44.0146484,340.551758 C44.2939467,340.924807 44.4335938,341.333982 44.4335938,341.779297 C44.4335938,342.482425 44.1582059,343.047849 43.6074219,343.475586 C43.0566379,343.903322 42.3320357,344.117188 41.4335938,344.117188 C40.4960891,344.117188 39.7597683,343.917971 39.2246094,343.519531 C38.6894504,343.121092 38.421875,342.556644 38.421875,341.826172 C38.421875,341.337888 38.5517565,340.904299 38.8115234,340.525391 C39.0712904,340.146482 39.4882784,339.812501 40.0625,339.523438 C39.5742163,339.214842 39.2226573,338.884767 39.0078125,338.533203 C38.7929677,338.181639 38.6855469,337.796877 38.6855469,337.378906 C38.6855469,336.765622 38.9394506,336.269533 39.4472656,335.890625 C39.9550807,335.511717 40.6171834,335.322266 41.4335938,335.322266 Z M40.0976562,341.720703 C40.0976562,342.056642 40.2148426,342.318358 40.4492188,342.505859 C40.6835949,342.69336 41.0039042,342.787109 41.4101562,342.787109 C41.8593772,342.787109 42.1953114,342.690431 42.4179688,342.49707 C42.6406261,342.30371 42.7519531,342.04883 42.7519531,341.732422 C42.7519531,341.470702 42.6416027,341.225587 42.4208984,340.99707 C42.2001942,340.768554 41.8417994,340.525392 41.3457031,340.267578 C40.5136677,340.650393 40.0976562,341.134763 40.0976562,341.720703 Z M41.421875,336.646484 C41.1132797,336.646484 40.8642588,336.725585 40.6748047,336.883789 C40.4853506,337.041993 40.390625,337.253905 40.390625,337.519531 C40.390625,337.753907 40.4658196,337.963866 40.6162109,338.149414 C40.7666023,338.334962 41.0390605,338.52539 41.4335938,338.720703 C41.8164082,338.541015 42.0839836,338.357423 42.2363281,338.169922 C42.3886726,337.982421 42.4648438,337.765626 42.4648438,337.519531 C42.4648438,337.249999 42.3671885,337.03711 42.171875,336.880859 C41.9765615,336.724609 41.726564,336.646484 41.421875,336.646484 Z M52.1286272,339.716797 C52.1286272,341.212898 51.8835124,342.320309 51.3932756,343.039062 C50.9030388,343.757816 50.1481635,344.117188 49.1286272,344.117188 C48.140341,344.117188 47.3952312,343.746097 46.8932756,343.003906 C46.39132,342.261715 46.1403459,341.166023 46.1403459,339.716797 C46.1403459,338.205071 46.3844841,337.090824 46.8727678,336.374023 C47.3610515,335.657223 48.1129971,335.298828 49.1286272,335.298828 C50.1169134,335.298828 50.8639762,335.673824 51.3698381,336.423828 C51.8757,337.173832 52.1286272,338.271477 52.1286272,339.716797 Z M47.9391741,339.716797 C47.9391741,340.767583 48.0299935,341.520506 48.211635,341.975586 C48.3932765,342.430666 48.6989375,342.658203 49.1286272,342.658203 C49.5505043,342.658203 49.8551887,342.427737 50.0426897,341.966797 C50.2301906,341.505857 50.3239397,340.755865 50.3239397,339.716797 C50.3239397,338.66601 50.2292141,337.911135 50.03976,337.452148 C49.8503059,336.993162 49.546598,336.763672 49.1286272,336.763672 C48.7028438,336.763672 48.3981593,336.993162 48.2145647,337.452148 C48.03097,337.911135 47.9391741,338.66601 47.9391741,339.716797 Z" id="80" fill="#CACCCD"></path>
                    <path d="M42.9570312,291 L41.1464844,291 L41.1464844,286.042969 L41.1640625,285.228516 L41.1933594,284.337891 C40.8925766,284.638673 40.6835943,284.835937 40.5664062,284.929688 L39.5820312,285.720703 L38.7089844,284.630859 L41.46875,282.433594 L42.9570312,282.433594 L42.9570312,291 Z M52.1286272,286.716797 C52.1286272,288.212898 51.8835124,289.320309 51.3932756,290.039062 C50.9030388,290.757816 50.1481635,291.117188 49.1286272,291.117188 C48.140341,291.117188 47.3952312,290.746097 46.8932756,290.003906 C46.39132,289.261715 46.1403459,288.166023 46.1403459,286.716797 C46.1403459,285.205071 46.3844841,284.090824 46.8727678,283.374023 C47.3610515,282.657223 48.1129971,282.298828 49.1286272,282.298828 C50.1169134,282.298828 50.8639762,282.673824 51.3698381,283.423828 C51.8757,284.173832 52.1286272,285.271477 52.1286272,286.716797 Z M47.9391741,286.716797 C47.9391741,287.767583 48.0299935,288.520506 48.211635,288.975586 C48.3932765,289.430666 48.6989375,289.658203 49.1286272,289.658203 C49.5505043,289.658203 49.8551887,289.427737 50.0426897,288.966797 C50.2301906,288.505857 50.3239397,287.755865 50.3239397,286.716797 C50.3239397,285.66601 50.2292141,284.911135 50.03976,284.452148 C49.8503059,283.993162 49.546598,283.763672 49.1286272,283.763672 C48.7028438,283.763672 48.3981593,283.993162 48.2145647,284.452148 C48.03097,284.911135 47.9391741,285.66601 47.9391741,286.716797 Z M59.8353793,286.716797 C59.8353793,288.212898 59.5902646,289.320309 59.1000278,290.039062 C58.609791,290.757816 57.8549157,291.117188 56.8353793,291.117188 C55.8470932,291.117188 55.1019834,290.746097 54.6000278,290.003906 C54.0980722,289.261715 53.8470981,288.166023 53.8470981,286.716797 C53.8470981,285.205071 54.0912363,284.090824 54.57952,283.374023 C55.0678037,282.657223 55.8197493,282.298828 56.8353793,282.298828 C57.8236655,282.298828 58.5707284,282.673824 59.0765903,283.423828 C59.5824522,284.173832 59.8353793,285.271477 59.8353793,286.716797 Z M55.6459262,286.716797 C55.6459262,287.767583 55.7367456,288.520506 55.9183872,288.975586 C56.1000287,289.430666 56.4056897,289.658203 56.8353793,289.658203 C57.2572565,289.658203 57.5619409,289.427737 57.7494418,288.966797 C57.9369428,288.505857 58.0306918,287.755865 58.0306918,286.716797 C58.0306918,285.66601 57.9359662,284.911135 57.7465122,284.452148 C57.5570581,283.993162 57.2533502,283.763672 56.8353793,283.763672 C56.409596,283.763672 56.1049115,283.993162 55.9213168,284.452148 C55.7377222,284.911135 55.6459262,285.66601 55.6459262,286.716797 Z" id="100" fill="#CACCCD"></path>
                    <path d="M42.9570312,238 L41.1464844,238 L41.1464844,233.042969 L41.1640625,232.228516 L41.1933594,231.337891 C40.8925766,231.638673 40.6835943,231.835937 40.5664062,231.929688 L39.5820312,232.720703 L38.7089844,231.630859 L41.46875,229.433594 L42.9570312,229.433594 L42.9570312,238 Z M52.1755022,238 L46.1872209,238 L46.1872209,236.740234 L48.3376116,234.566406 C48.9743335,233.914059 49.3903449,233.461915 49.5856584,233.209961 C49.7809719,232.958007 49.9215955,232.72461 50.0075334,232.509766 C50.0934714,232.294921 50.1364397,232.072267 50.1364397,231.841797 C50.1364397,231.498045 50.0417141,231.242188 49.85226,231.074219 C49.6628059,230.906249 49.4098788,230.822266 49.0934709,230.822266 C48.761438,230.822266 48.4391756,230.898437 48.1266741,231.050781 C47.8141725,231.203126 47.4880039,231.41992 47.1481584,231.701172 L46.1637834,230.535156 C46.5856605,230.175779 46.9352664,229.921876 47.2126116,229.773438 C47.4899567,229.624999 47.792688,229.510743 48.1208147,229.430664 C48.4489413,229.350586 48.8161251,229.310547 49.2223772,229.310547 C49.7575361,229.310547 50.2301876,229.408202 50.6403459,229.603516 C51.0505042,229.798829 51.3688604,230.072264 51.5954241,230.423828 C51.8219877,230.775392 51.9352678,231.177732 51.9352678,231.630859 C51.9352678,232.025393 51.8659326,232.395506 51.72726,232.741211 C51.5885874,233.086916 51.3737458,233.441404 51.0827287,233.804688 C50.7917117,234.167971 50.2790215,234.685544 49.5446428,235.357422 L48.4430803,236.394531 L48.4430803,236.476562 L52.1755022,236.476562 L52.1755022,238 Z M59.8353793,233.716797 C59.8353793,235.212898 59.5902646,236.320309 59.1000278,237.039062 C58.609791,237.757816 57.8549157,238.117188 56.8353793,238.117188 C55.8470932,238.117188 55.1019834,237.746097 54.6000278,237.003906 C54.0980722,236.261715 53.8470981,235.166023 53.8470981,233.716797 C53.8470981,232.205071 54.0912363,231.090824 54.57952,230.374023 C55.0678037,229.657223 55.8197493,229.298828 56.8353793,229.298828 C57.8236655,229.298828 58.5707284,229.673824 59.0765903,230.423828 C59.5824522,231.173832 59.8353793,232.271477 59.8353793,233.716797 Z M55.6459262,233.716797 C55.6459262,234.767583 55.7367456,235.520506 55.9183872,235.975586 C56.1000287,236.430666 56.4056897,236.658203 56.8353793,236.658203 C57.2572565,236.658203 57.5619409,236.427737 57.7494418,235.966797 C57.9369428,235.505857 58.0306918,234.755865 58.0306918,233.716797 C58.0306918,232.66601 57.9359662,231.911135 57.7465122,231.452148 C57.5570581,230.993162 57.2533502,230.763672 56.8353793,230.763672 C56.409596,230.763672 56.1049115,230.993162 55.9213168,231.452148 C55.7377222,231.911135 55.6459262,232.66601 55.6459262,233.716797 Z" id="120" fill="#CACCCD"></path>
                    <path d="M42.9570312,185 L41.1464844,185 L41.1464844,180.042969 L41.1640625,179.228516 L41.1933594,178.337891 C40.8925766,178.638673 40.6835943,178.835937 40.5664062,178.929688 L39.5820312,179.720703 L38.7089844,178.630859 L41.46875,176.433594 L42.9570312,176.433594 L42.9570312,185 Z M52.3688616,183.224609 L51.3376116,183.224609 L51.3376116,185 L49.5680803,185 L49.5680803,183.224609 L45.9118303,183.224609 L45.9118303,181.964844 L49.6676897,176.433594 L51.3376116,176.433594 L51.3376116,181.818359 L52.3688616,181.818359 L52.3688616,183.224609 Z M49.5680803,181.818359 L49.5680803,180.365234 C49.5680803,180.123046 49.5778458,179.771487 49.5973772,179.310547 C49.6169085,178.849607 49.6325334,178.582032 49.6442522,178.507812 L49.5973772,178.507812 C49.4528452,178.828127 49.2790188,179.140623 49.0758928,179.445312 L47.5055803,181.818359 L49.5680803,181.818359 Z M59.8353793,180.716797 C59.8353793,182.212898 59.5902646,183.320309 59.1000278,184.039062 C58.609791,184.757816 57.8549157,185.117188 56.8353793,185.117188 C55.8470932,185.117188 55.1019834,184.746097 54.6000278,184.003906 C54.0980722,183.261715 53.8470981,182.166023 53.8470981,180.716797 C53.8470981,179.205071 54.0912363,178.090824 54.57952,177.374023 C55.0678037,176.657223 55.8197493,176.298828 56.8353793,176.298828 C57.8236655,176.298828 58.5707284,176.673824 59.0765903,177.423828 C59.5824522,178.173832 59.8353793,179.271477 59.8353793,180.716797 Z M55.6459262,180.716797 C55.6459262,181.767583 55.7367456,182.520506 55.9183872,182.975586 C56.1000287,183.430666 56.4056897,183.658203 56.8353793,183.658203 C57.2572565,183.658203 57.5619409,183.427737 57.7494418,182.966797 C57.9369428,182.505857 58.0306918,181.755865 58.0306918,180.716797 C58.0306918,179.66601 57.9359662,178.911135 57.7465122,178.452148 C57.5570581,177.993162 57.2533502,177.763672 56.8353793,177.763672 C56.409596,177.763672 56.1049115,177.993162 55.9213168,178.452148 C55.7377222,178.911135 55.6459262,179.66601 55.6459262,180.716797 Z" id="140" fill="#CACCCD"></path>
                </g>
            </g>
        </g>
    </g>
</svg>
