<?xml version="1.0" encoding="UTF-8" standalone="no"?>
<!DOCTYPE svg PUBLIC "-//W3C//DTD SVG 1.1//EN" "http://www.w3.org/Graphics/SVG/1.1/DTD/svg11.dtd">
<svg version="1.1" xmlns="http://www.w3.org/2000/svg" xmlns:xlink="http://www.w3.org/1999/xlink" preserveAspectRatio="xMidYMid meet" viewBox="0 0 655 289" width="655" height="289"><defs><path d="M210.22 3L210.22 67.83L156.85 67.83L145.61 79.06L145.61 132.19L84.28 132.19L81 129.15L81 67.83L134.14 67.83L145.61 56.36L145.61 3L210.22 3Z" id="b9Ar2a3Cq"></path><path d="M3 78.4L67.61 78.4L67.61 131.53L79.08 143.24L132.22 143.24L132.22 204.32L128.94 207.6L67.61 207.6L67.61 154.47L56.14 143.24L3 143.24L3 78.4Z" id="d4b9oSdiEy"></path><path d="M288.22 210.2L223.61 210.2L223.61 157.07L212.37 145.84L159 145.84L159 84.52L162.28 81L223.61 81L223.61 134.13L235.08 145.84L288.22 145.84L288.22 210.2Z" id="a2bSBvwPdP"></path><linearGradient id="gradienta26qqenrcQ" gradientUnits="userSpaceOnUse" x1="223.61" y1="81" x2="223.61" y2="288.6"><stop style="stop-color: #f6ca63;stop-opacity: 1" offset="0%"></stop><stop style="stop-color: #a67c20;stop-opacity: 1" offset="100%"></stop></linearGradient><path d="M81 288.2L81 223.6L134.14 223.6L145.61 212.13L145.61 159L206.71 159L210.22 162.51L210.22 223.6L156.85 223.6L145.61 235.07L145.61 288.2L81 288.2Z" id="a4th9H0aPY"></path><linearGradient id="gradientaGs5jFem" gradientUnits="userSpaceOnUse" x1="145.61" y1="288.19" x2="145.61" y2="80.59"><stop style="stop-color: #a2791f;stop-opacity: 1" offset="0%"></stop><stop style="stop-color: #f6ca63;stop-opacity: 1" offset="100%"></stop></linearGradient><path d="M370.29 167.57C369.32 164.82 368.36 162.08 367.4 159.33C364.45 159.33 340.82 159.33 337.86 159.33C336.9 162.08 335.94 164.82 334.98 167.57C334.02 170.32 333.06 173.06 332.23 175.67C330.46 175.67 316.28 175.67 314.51 175.67C317.4 167.57 320.01 160.02 322.62 153.01C325.23 146.14 327.7 139.55 330.17 133.51C332.64 127.33 334.98 121.56 337.45 116.07C339.79 110.57 342.26 105.22 344.87 100C346.49 100 359.46 100 361.08 100C363.55 105.22 366.03 110.57 368.5 116.07C370.97 121.56 373.31 127.33 375.78 133.51C378.25 139.69 380.73 146.14 383.34 153.01C385.95 159.88 388.56 167.43 391.44 175.67C390.21 175.67 384.08 175.67 373.03 175.67C371.84 172.1 370.93 169.4 370.29 167.57ZM350.78 121.56C350.09 123.48 349.27 125.68 348.31 128.15C347.34 130.62 346.38 133.37 345.15 136.39C344.05 139.41 342.81 142.57 341.57 145.73C343.74 145.73 361.11 145.73 363.28 145.73C362.18 142.44 360.94 139.28 359.84 136.26C358.75 133.23 357.78 130.49 356.69 128.01C355.72 125.54 354.9 123.35 354.07 121.42C353.53 119.64 352.98 118.13 352.43 117.03C352.01 118.13 351.46 119.64 350.78 121.56Z" id="aqBI13e7D"></path><path d="M438.29 175.81C433.89 176.5 429.36 176.91 424.55 176.91C419.6 176.91 415.62 176.22 412.32 174.99C409.02 173.61 406.55 171.83 404.63 169.49C402.71 167.16 401.33 164.27 400.64 160.98C399.82 157.68 399.41 154.11 399.41 150.13C399.41 147.99 399.41 137.33 399.41 118.13L415.76 118.13C415.76 136.17 415.76 146.2 415.76 148.2C415.76 153.42 416.44 157.27 417.82 159.6C419.19 161.94 421.8 163.04 425.65 163.04C426.75 163.04 428.12 163.04 429.36 162.9C430.73 162.76 431.83 162.63 432.79 162.49C432.79 159.53 432.79 144.74 432.79 118.13L449.14 118.13L449.14 173.61L449 173.61C444.79 174.62 441.22 175.35 438.29 175.81Z" id="bfYTchUM"></path><path d="M493.78 131.45C491.86 131.04 489.66 130.9 487.46 130.9C486.5 130.9 485.27 131.04 483.76 131.17C482.38 131.31 481.28 131.59 480.6 131.72C480.6 134.65 480.6 149.3 480.6 175.67L464.25 175.67C464.25 143.04 464.25 124.91 464.25 121.29C467.13 120.32 470.57 119.36 474.55 118.4C478.54 117.44 482.93 117.03 487.88 117.03C488.7 117.03 489.8 117.03 491.04 117.16C492.27 117.3 493.51 117.44 494.75 117.58C495.98 117.71 497.22 117.99 498.45 118.26C499.69 118.54 500.79 118.81 501.61 119.22C501.43 120.11 500.52 124.55 498.87 132.55C496.76 132.09 495.07 131.72 493.78 131.45Z" id="pMslVhp2"></path><path d="M548.73 175.81C544.34 176.5 539.8 176.91 535 176.91C530.05 176.91 526.07 176.22 522.77 174.99C519.47 173.61 517 171.83 515.08 169.49C513.15 167.16 511.78 164.27 511.09 160.98C510.27 157.68 509.86 154.11 509.86 150.13C509.86 147.99 509.86 137.33 509.86 118.13L526.2 118.13C526.2 136.17 526.2 146.2 526.2 148.2C526.2 153.42 526.89 157.27 528.26 159.6C529.64 161.94 532.25 163.04 536.1 163.04C537.19 163.04 538.57 163.04 539.8 162.9C541.18 162.76 542.28 162.63 543.24 162.49C543.24 159.53 543.24 144.74 543.24 118.13L559.59 118.13L559.59 173.61L559.45 173.61C555.24 174.62 551.66 175.35 548.73 175.81Z" id="a26W4n39S4"></path><path d="M604.37 134.06C603 131.86 600.66 130.76 597.36 130.76C596.4 130.76 595.3 130.76 594.2 130.9C593.11 131.04 592.01 131.17 591.04 131.31C591.04 134.27 591.04 149.06 591.04 175.67L574.7 175.67C574.7 142.38 574.7 123.89 574.7 120.19C576.07 119.77 577.72 119.5 579.51 119.09C581.43 118.68 583.35 118.26 585.41 117.99C587.47 117.71 589.67 117.44 591.87 117.16C594.07 117.03 596.26 116.89 598.33 116.89C602.45 116.89 605.88 117.44 608.49 118.54C611.1 119.64 613.16 120.87 614.95 122.25C617.28 120.6 619.89 119.22 622.92 118.26C625.94 117.3 628.69 116.89 631.3 116.89C635.83 116.89 639.67 117.58 642.56 118.81C645.44 120.05 647.92 121.83 649.57 124.17C651.21 126.5 652.45 129.25 653.14 132.41C653.82 135.57 654.1 139.14 654.1 143.12C654.1 145.28 654.1 156.09 654.1 175.54L637.75 175.54C637.75 157.32 637.75 147.21 637.75 145.18C637.75 139.96 637.06 136.26 635.69 134.06C634.32 131.86 631.98 130.76 628.69 130.76C627.86 130.76 626.62 131.04 624.98 131.45C623.46 131.86 622.09 132.41 621.13 133.1C621.68 134.74 621.95 136.53 622.09 138.45C622.23 140.38 622.37 142.3 622.37 144.36C622.37 146.45 622.37 156.88 622.37 175.67L606.02 175.67L606.02 145.18L606.43 145.18C605.97 139.23 605.29 135.52 604.37 134.06Z" id="a1rkF798kz"></path><path d="M437.32 187.76L460.26 187.76L460.26 194.22L445.02 194.22L445.02 200.81L458.62 200.81L458.62 207.13L445.02 207.13L445.02 215.23L461.36 215.23L461.36 221.68L437.32 221.68L437.32 187.76Z" id="e2mYPsSaxj"></path><path d="M482.79 196L490.35 196C484.99 203.5 482.02 207.67 481.42 208.5C483.48 210.83 485.27 213.17 486.92 215.5C488.56 217.84 489.8 219.9 490.76 221.68C489.98 221.68 483.71 221.68 482.93 221.68C482.66 221.14 482.38 220.59 481.97 219.9C481.56 219.21 481.15 218.39 480.6 217.56C480.05 216.74 479.63 216.05 479.09 215.5C478.54 214.95 477.99 214.41 477.57 213.99C477.02 214.41 476.61 214.82 476.06 215.37C475.51 215.92 475.1 216.47 474.55 217.29C474.14 218.11 473.59 218.8 473.18 219.62C472.77 220.45 472.35 221.14 471.94 221.68C471.2 221.68 465.27 221.68 464.52 221.68C464.94 220.86 465.49 219.9 466.17 218.8C466.86 217.7 467.55 216.47 468.37 215.37C469.19 214.13 470.02 213.03 470.98 211.93C471.94 210.83 472.77 209.74 473.73 208.77C472.08 206.44 470.57 204.38 469.06 202.18C467.55 200.12 466.17 198.06 464.66 196C465.18 196 467.79 196 472.49 196L477.71 203.14L482.79 196Z" id="a8isO8JZQb"></path><path d="M493.1 203.55C493.65 201.91 494.61 200.53 495.71 199.3C496.81 198.06 498.18 197.1 499.83 196.41C501.48 195.73 503.26 195.31 505.46 195.31C506.83 195.31 508.07 195.45 509.17 195.73C510.27 196 511.37 196.28 512.47 196.82C512.32 197.4 511.11 202.02 510.96 202.59C510.27 202.32 509.58 202.04 508.76 201.91C507.93 201.77 506.97 201.63 506.01 201.63C503.81 201.63 502.3 202.32 501.2 203.69C500.1 205.07 499.55 206.85 499.55 208.91C499.55 211.25 500.1 213.03 501.06 214.27C502.03 215.5 503.81 216.19 506.29 216.19C507.11 216.19 508.07 216.05 509.17 215.92C510.13 215.78 511.09 215.5 511.92 215.09C512.01 215.68 512.78 220.41 512.88 221C512.05 221.41 510.96 221.68 509.72 221.96C508.48 222.23 507.11 222.37 505.46 222.37C503.13 222.37 501.06 221.96 499.42 221.27C497.77 220.59 496.39 219.62 495.3 218.39C494.2 217.15 493.37 215.78 492.96 214.13C492.41 212.48 492.14 210.83 492.14 208.77C492.14 206.85 492.41 205.2 493.1 203.55Z" id="a4qC67d1K"></path><path d="M517.82 185.01L525.11 183.78C525.11 191.19 525.11 195.31 525.11 196.14C525.65 196 526.2 195.86 527.03 195.73C527.85 195.59 528.54 195.45 529.23 195.45C531.29 195.45 533.07 195.73 534.45 196.28C535.82 196.82 536.92 197.65 537.74 198.75C538.57 199.85 539.12 201.08 539.53 202.46C539.8 203.83 540.08 205.48 540.08 207.26C540.08 208.23 540.08 213.09 540.08 221.82L532.8 221.82C532.8 213.66 532.8 209.13 532.8 208.22C532.8 205.89 532.52 204.24 531.84 203.28C531.15 202.32 530.05 201.77 528.54 201.77C527.85 201.77 527.3 201.77 526.75 201.91C526.2 202.04 525.65 202.18 525.24 202.32C525.24 203.62 525.24 210.12 525.24 221.82L517.82 221.82L517.82 221.68L517.82 185.01Z" id="mdXtiLgF0"></path><path d="M561.23 196C562.61 196.55 563.84 197.24 564.67 198.06C565.49 199.02 566.18 200.12 566.45 201.36C566.87 202.59 567 204.1 567 205.75C567 207.26 567 219.35 567 220.86C565.91 221.14 564.53 221.41 562.61 221.68C560.69 221.96 558.49 222.1 555.88 222.1C554.23 222.1 552.72 221.96 551.34 221.68C549.97 221.41 548.87 220.86 547.91 220.31C546.95 219.62 546.12 218.8 545.71 217.7C545.16 216.6 544.89 215.37 544.89 213.72C544.89 212.21 545.16 210.97 545.85 209.87C546.4 208.77 547.22 207.95 548.32 207.4C549.28 206.71 550.52 206.3 551.76 206.03C552.99 205.75 554.37 205.62 555.88 205.62C556.84 205.62 557.66 205.62 558.35 205.75C559.04 205.89 559.72 205.89 560.14 206.03C560.14 205.96 560.14 205.41 560.14 205.34C560.14 204.1 559.72 203.14 559.04 202.32C558.35 201.49 556.98 201.22 555.19 201.22C553.95 201.22 552.72 201.36 551.48 201.49C550.24 201.63 549.28 201.91 548.32 202.32C548.23 201.73 547.46 197 547.36 196.41C547.77 196.28 548.32 196.14 549.01 196C549.7 195.86 550.38 195.73 551.07 195.59C551.76 195.45 552.58 195.31 553.4 195.31C554.23 195.31 555.05 195.31 555.88 195.31C558.07 195.31 559.86 195.59 561.23 196ZM558.49 216.6C559.17 216.6 559.72 216.47 560 216.47C560 215.92 560 211.52 560 210.97C559.72 210.97 559.31 210.83 558.62 210.83C558.07 210.83 557.53 210.7 556.98 210.7C556.29 210.7 555.6 210.7 555.05 210.83C554.5 210.97 553.95 211.11 553.4 211.25C552.85 211.38 552.58 211.8 552.31 212.21C552.03 212.62 551.89 213.03 551.89 213.72C551.89 214.82 552.31 215.64 552.99 216.05C553.68 216.47 555.19 216.6 556.43 216.6C557.11 216.6 557.8 216.6 558.49 216.6Z" id="aPIrvHEpK"></path><path d="M578.54 195.86C580.47 195.59 582.53 195.45 584.73 195.45C586.92 195.45 588.71 195.73 590.22 196.28C591.73 196.82 592.83 197.65 593.65 198.75C594.48 199.85 595.17 201.08 595.44 202.46C595.85 203.83 595.99 205.48 595.99 207.26C595.99 208.23 595.99 213.09 595.99 221.82L588.71 221.82C588.71 213.66 588.71 209.13 588.71 208.22C588.71 205.89 588.43 204.24 587.75 203.28C587.06 202.32 585.96 201.77 584.31 201.77C583.76 201.77 583.21 201.77 582.66 201.91C582.12 201.91 581.57 202.04 581.15 202.04C581.15 203.36 581.15 209.96 581.15 221.82L573.87 221.82L573.74 196.82L573.74 196.82C575.66 196.37 577.26 196.05 578.54 195.86Z" id="a5DYnfBwIx"></path><path d="M621.54 227.86C619.48 229.93 616.05 230.89 611.65 230.89C610.14 230.89 608.49 230.75 606.98 230.47C605.47 230.2 603.96 229.79 602.58 229.38C602.71 228.77 603.7 223.94 603.82 223.33C604.92 223.74 606.16 224.16 607.39 224.43C608.63 224.71 610.14 224.84 611.65 224.84C613.71 224.84 615.22 224.43 616.05 223.47C616.87 222.51 617.28 221.41 617.28 219.9C617.28 219.8 617.28 219.03 617.28 218.94C616.46 219.35 615.63 219.62 614.81 219.76C613.99 219.9 613.02 220.04 612.06 220.04C608.49 220.04 605.74 218.94 603.96 216.88C602.03 214.82 601.07 211.8 601.07 208.09C601.07 206.16 601.35 204.52 601.9 202.87C602.45 201.36 603.27 199.98 604.51 198.89C605.74 197.79 606.98 196.96 608.63 196.28C610.28 195.73 612.06 195.31 614.12 195.31C614.95 195.31 615.91 195.31 616.87 195.45C617.83 195.59 618.66 195.59 619.62 195.73C620.58 195.86 621.4 196 622.23 196.14C623.05 196.28 623.74 196.55 624.43 196.69C624.43 198.14 624.43 205.42 624.43 218.53L624.7 218.53C623.97 223.38 622.92 226.49 621.54 227.86ZM613.57 213.99C614.26 213.99 615.09 213.86 615.63 213.72C616.32 213.58 616.87 213.31 617.28 213.03C617.28 211.88 617.28 202.65 617.28 201.49C616.87 201.49 616.46 201.36 616.05 201.36C615.5 201.36 614.95 201.22 614.4 201.22C612.47 201.22 611.1 201.91 610.14 203.14C609.18 204.38 608.63 206.03 608.63 207.95C608.63 212.07 610.28 213.99 613.57 213.99Z" id="a2ZJg48KLd"></path><path d="M631.43 203.01C632.12 201.36 633.08 199.85 634.18 198.75C635.28 197.65 636.65 196.69 638.16 196.14C639.67 195.59 641.19 195.31 642.7 195.31C646.41 195.31 649.29 196.41 651.35 198.61C653.41 200.81 654.51 204.1 654.51 208.5C654.51 208.91 654.51 209.32 654.51 209.87C654.51 210.42 654.51 210.83 654.37 211.25C652.73 211.25 639.54 211.25 637.89 211.25C638.03 212.76 638.71 213.99 639.95 214.82C641.19 215.64 642.83 216.19 644.9 216.19C646.27 216.19 647.51 216.05 648.88 215.78C650.12 215.5 651.21 215.23 652.04 214.82C652.13 215.41 652.9 220.13 653 220.72C652.59 220.86 652.04 221.14 651.49 221.27C650.94 221.41 650.12 221.68 649.29 221.82C648.47 221.96 647.64 222.1 646.68 222.23C645.72 222.37 644.9 222.37 643.93 222.37C641.6 222.37 639.67 222.1 637.89 221.41C636.1 220.72 634.73 219.76 633.63 218.66C632.53 217.43 631.71 216.05 631.16 214.41C630.47 212.62 630.33 210.97 630.33 209.05C630.33 206.71 630.75 204.79 631.43 203.01ZM647.09 204.52C646.96 203.97 646.68 203.42 646.27 203.01C645.86 202.59 645.44 202.18 644.9 201.91C644.35 201.63 643.66 201.49 642.83 201.49C642.01 201.49 641.32 201.63 640.77 201.91C640.22 202.18 639.67 202.59 639.26 203.01C638.85 203.42 638.58 203.97 638.3 204.65C638.03 205.2 637.89 205.89 637.89 206.44C638.52 206.44 641.68 206.44 647.37 206.44L647.37 206.3C647.28 205.48 647.18 204.88 647.09 204.52Z" id="f7qJkOqUn"></path></defs><g><g><g><g><use xlink:href="#b9Ar2a3Cq" opacity="1" fill-opacity="0" stroke="#e0b551" stroke-width="3" stroke-opacity="1"></use></g></g><g><g><use xlink:href="#d4b9oSdiEy" opacity="1" fill-opacity="0" stroke="#e0b551" stroke-width="3" stroke-opacity="1"></use></g></g><g><use xlink:href="#a2bSBvwPdP" opacity="1" fill="url(#gradienta26qqenrcQ)"></use><g><use xlink:href="#a2bSBvwPdP" opacity="1" fill-opacity="0" stroke="#000000" stroke-width="1" stroke-opacity="0"></use></g></g><g><use xlink:href="#a4th9H0aPY" opacity="1" fill="url(#gradientaGs5jFem)"></use><g><use xlink:href="#a4th9H0aPY" opacity="1" fill-opacity="0" stroke="#000000" stroke-width="1" stroke-opacity="0"></use></g></g><g><use xlink:href="#aqBI13e7D" opacity="1" fill="#e2e3e4" fill-opacity="1"></use><g><use xlink:href="#aqBI13e7D" opacity="1" fill-opacity="0" stroke="#000000" stroke-width="1" stroke-opacity="0"></use></g></g><g><use xlink:href="#bfYTchUM" opacity="1" fill="#e2e3e4" fill-opacity="1"></use><g><use xlink:href="#bfYTchUM" opacity="1" fill-opacity="0" stroke="#000000" stroke-width="1" stroke-opacity="0"></use></g></g><g><use xlink:href="#pMslVhp2" opacity="1" fill="#e2e3e4" fill-opacity="1"></use><g><use xlink:href="#pMslVhp2" opacity="1" fill-opacity="0" stroke="#000000" stroke-width="1" stroke-opacity="0"></use></g></g><g><use xlink:href="#a26W4n39S4" opacity="1" fill="#e2e3e4" fill-opacity="1"></use><g><use xlink:href="#a26W4n39S4" opacity="1" fill-opacity="0" stroke="#000000" stroke-width="1" stroke-opacity="0"></use></g></g><g><use xlink:href="#a1rkF798kz" opacity="1" fill="#e2e3e4" fill-opacity="1"></use><g><use xlink:href="#a1rkF798kz" opacity="1" fill-opacity="0" stroke="#000000" stroke-width="1" stroke-opacity="0"></use></g></g><g><use xlink:href="#e2mYPsSaxj" opacity="1" fill="#e2e3e4" fill-opacity="1"></use><g><use xlink:href="#e2mYPsSaxj" opacity="1" fill-opacity="0" stroke="#000000" stroke-width="1" stroke-opacity="0"></use></g></g><g><use xlink:href="#a8isO8JZQb" opacity="1" fill="#e2e3e4" fill-opacity="1"></use><g><use xlink:href="#a8isO8JZQb" opacity="1" fill-opacity="0" stroke="#000000" stroke-width="1" stroke-opacity="0"></use></g></g><g><use xlink:href="#a4qC67d1K" opacity="1" fill="#e2e3e4" fill-opacity="1"></use><g><use xlink:href="#a4qC67d1K" opacity="1" fill-opacity="0" stroke="#000000" stroke-width="1" stroke-opacity="0"></use></g></g><g><use xlink:href="#mdXtiLgF0" opacity="1" fill="#e2e3e4" fill-opacity="1"></use><g><use xlink:href="#mdXtiLgF0" opacity="1" fill-opacity="0" stroke="#000000" stroke-width="1" stroke-opacity="0"></use></g></g><g><use xlink:href="#aPIrvHEpK" opacity="1" fill="#e2e3e4" fill-opacity="1"></use><g><use xlink:href="#aPIrvHEpK" opacity="1" fill-opacity="0" stroke="#000000" stroke-width="1" stroke-opacity="0"></use></g></g><g><use xlink:href="#a5DYnfBwIx" opacity="1" fill="#e2e3e4" fill-opacity="1"></use><g><use xlink:href="#a5DYnfBwIx" opacity="1" fill-opacity="0" stroke="#000000" stroke-width="1" stroke-opacity="0"></use></g></g><g><use xlink:href="#a2ZJg48KLd" opacity="1" fill="#e2e3e4" fill-opacity="1"></use><g><use xlink:href="#a2ZJg48KLd" opacity="1" fill-opacity="0" stroke="#000000" stroke-width="1" stroke-opacity="0"></use></g></g><g><use xlink:href="#f7qJkOqUn" opacity="1" fill="#e2e3e4" fill-opacity="1"></use><g><use xlink:href="#f7qJkOqUn" opacity="1" fill-opacity="0" stroke="#000000" stroke-width="1" stroke-opacity="0"></use></g></g></g></g></svg>