<?xml version="1.0" encoding="UTF-8" standalone="no"?>
<!DOCTYPE svg PUBLIC "-//W3C//DTD SVG 1.1//EN" "http://www.w3.org/Graphics/SVG/1.1/DTD/svg11.dtd">
<svg version="1.1" xmlns="http://www.w3.org/2000/svg" xmlns:xlink="http://www.w3.org/1999/xlink" preserveAspectRatio="xMidYMid meet" viewBox="0 0 255 210" width="255" height="210"><defs><path d="M71.44 102.89L43.29 75.18L43.07 63L70.79 34.85L38.43 3L34.99 3.02L3 35.51L31.14 63.22L31.11 75.15L3.4 103.3L37.74 137.11L71.44 102.89Z" id="i4JuznAVqg"></path><path d="M117.44 137.38L89.29 109.68L89.07 97.49L116.79 69.34L84.43 37.49L80.99 37.52L49 70L77.14 97.71L77.11 109.64L49.39 137.79L83.74 171.61L117.44 137.38Z" id="am5hNJWap"></path><path d="M185 102.89L213.14 75.18L213.36 63L185.65 34.85L218 3L221.45 3.02L253.44 35.51L225.3 63.22L225.33 75.15L253.04 103.3L218.7 137.11L185 102.89Z" id="cZyrTnCs5"></path><path d="M208.44 137.38L180.3 109.68L180.08 97.49L207.79 69.34L175.44 37.49L171.99 37.52L140 70L168.14 97.71L168.11 109.64L140.4 137.79L174.74 171.61L208.44 137.38Z" id="ch5aJg3vf"></path><path d="M95 171.38L123.14 143.67L123.36 131.49L95.65 103.34L128 71.49L131.45 71.51L163.44 104L135.29 131.71L135.33 143.64L163.04 171.79L128.7 205.6L95 171.38Z" id="a3RE6ufZPz"></path></defs><g><g><g><use xlink:href="#i4JuznAVqg" opacity="1" fill="#000000" fill-opacity="0"></use><g><use xlink:href="#i4JuznAVqg" opacity="1" fill-opacity="0" stroke="#e0b551" stroke-width="3" stroke-opacity="1"></use></g></g><g><use xlink:href="#am5hNJWap" opacity="1" fill="#000000" fill-opacity="0"></use><g><use xlink:href="#am5hNJWap" opacity="1" fill-opacity="0" stroke="#e0b551" stroke-width="3" stroke-opacity="1"></use></g></g><g><use xlink:href="#cZyrTnCs5" opacity="1" fill="#000000" fill-opacity="0"></use><g><use xlink:href="#cZyrTnCs5" opacity="1" fill-opacity="0" stroke="#e0b551" stroke-width="3" stroke-opacity="1"></use></g></g><g><use xlink:href="#ch5aJg3vf" opacity="1" fill="#000000" fill-opacity="0"></use><g><use xlink:href="#ch5aJg3vf" opacity="1" fill-opacity="0" stroke="#e0b551" stroke-width="3" stroke-opacity="1"></use></g></g><g><use xlink:href="#a3RE6ufZPz" opacity="1" fill="#000000" fill-opacity="0"></use><g><use xlink:href="#a3RE6ufZPz" opacity="1" fill-opacity="0" stroke="#e0b551" stroke-width="3" stroke-opacity="1"></use></g></g></g></g></svg>