
<svg width="21px" height="15px" viewBox="0 0 21 15" version="1.1" xmlns="http://www.w3.org/2000/svg" xmlns:xlink="http://www.w3.org/1999/xlink">
    <!-- Generator: Sketch 46.2 (44496) - http://www.bohemiancoding.com/sketch -->
    <desc>Created with Sketch.</desc>
    <defs></defs>
    <g id="Page-1" stroke="none" stroke-width="1" fill="none" fill-rule="evenodd">
        <g id="NEW-clean-nav-Copy" transform="translate(-593.000000, -7020.000000)" fill="#F6CA63">
            <g id="footer" transform="translate(0.000000, 6871.000000)">
                <g id="Group-11-Copy" transform="translate(593.000000, 145.000000)">
                    <path d="M20,5.78125 C20.0130209,5.7942709 20.0195312,5.81054678 20.0195312,5.83007812 L20.0195312,15.9375 C20.0195312,16.5104195 19.8795587,17.018227 19.5996094,17.4609375 C19.3196601,17.903648 18.9388045,18.125 18.4570312,18.125 L2.20703125,18.125 C1.68619531,18.125 1.19140859,17.8906273 0.72265625,17.421875 C0.253903906,16.9531227 0.01953125,16.4583359 0.01953125,15.9375 L0.01953125,5.859375 C0.01953125,5.8333332 0.0260416016,5.8072918 0.0390625,5.78125 C-1.953125e-07,5.58593652 0.0455722656,5.41666738 0.17578125,5.2734375 L0.2734375,5.17578125 C0.455730078,4.92838418 0.725909668,4.73307363 1.08398438,4.58984375 C1.44205908,4.44661387 1.8164043,4.375 2.20703125,4.375 L18.4570312,4.375 C19.3033896,4.375 19.8046867,4.72655898 19.9609375,5.4296875 L20,5.546875 C20.0130209,5.5859377 20.0195312,5.6249998 20.0195312,5.6640625 C20.0195312,5.7031252 20.0130209,5.7421873 20,5.78125 Z M2.20703125,5.625 C1.90755059,5.625 1.70572969,5.63151035 1.6015625,5.64453125 L10.0195312,12.3632812 L18.4570312,5.625 L2.20703125,5.625 Z M18.4570312,16.875 C18.6653656,16.875 18.7695312,16.5885445 18.7695312,16.015625 L18.7695312,6.9921875 L10.4296875,13.6523438 C10.3124994,13.74349 10.175782,13.7955729 10.0195312,13.8085938 C9.86328047,13.8085938 9.72656309,13.7565109 9.609375,13.6523438 L1.26953125,6.9921875 L1.26953125,15.9375 C1.26953125,16.0546881 1.32161406,16.1881503 1.42578125,16.3378906 C1.52994844,16.487631 1.65690029,16.6145828 1.80664062,16.71875 C1.95638096,16.8229172 2.08984316,16.875 2.20703125,16.875 L18.4570312,16.875 Z" id="envelope---simple-line-icons"></path>
                </g>
            </g>
        </g>
    </g>
</svg>
