<svg width="21px" height="21px" viewBox="0 0 21 21" version="1.1" xmlns="http://www.w3.org/2000/svg" xmlns:xlink="http://www.w3.org/1999/xlink">
    <g id="Page-1" stroke="none" stroke-width="1" fill="none" fill-rule="evenodd">
        <g id="NEW-clean-nav-Copy" transform="translate(-593.000000, -7053.000000)" fill="#F6CA63">
            <g id="footer" transform="translate(0.000000, 6871.000000)">
                <g id="Group-9-Copy" transform="translate(593.000000, 182.000000)">
                    <path d="M20.0390625,10.25 C20.0390625,11.5520898 19.7916691,12.8020773 19.296875,14 C18.8020809,15.1979227 18.1347698,16.2395789 17.2949219,17.125 C16.4550739,18.0104211 15.455735,18.7298149 14.296875,19.2832031 C13.138015,19.8365913 11.9140689,20.1523434 10.625,20.2304688 C10.5859373,20.2304688 10.5501304,20.2337239 10.5175781,20.2402344 C10.4850259,20.2467448 10.4492189,20.25 10.4101562,20.25 L10.0195312,20.25 C8.93879668,20.25 7.8873749,20.0807309 6.86523438,19.7421875 C5.84309385,19.4036441 4.9218791,18.9251333 4.1015625,18.3066406 C3.2812459,17.6881479 2.56185205,16.9720093 1.94335938,16.1582031 C1.3248667,15.344397 0.846355859,14.4264374 0.5078125,13.4042969 C0.169269141,12.3821563 0,11.3307346 0,10.25 C0,8.89582656 0.263669238,7.6002666 0.791015625,6.36328125 C1.31836201,5.1262959 2.03124551,4.06185342 2.9296875,3.16992188 C3.82812949,2.27799033 4.89582715,1.56836201 6.1328125,1.04101562 C7.36979785,0.513669238 8.66535781,0.25 10.0195312,0.25 L10.4492188,0.25 C10.5013023,0.25 10.5598955,0.256510352 10.625,0.26953125 C11.4843793,0.321614844 12.3209595,0.481118457 13.1347656,0.748046875 C13.9485718,1.01497529 14.7005174,1.36978945 15.390625,1.8125 C16.0807326,2.25521055 16.7154919,2.77929385 17.2949219,3.38476562 C17.8743519,3.9902374 18.3658834,4.65103809 18.7695312,5.3671875 C19.1731791,6.08333691 19.485676,6.85806875 19.7070312,7.69140625 C19.9283865,8.52474375 20.0390625,9.3775998 20.0390625,10.25 Z M18.1835938,13.4726562 C18.3789072,12.9648412 18.5286453,12.4407579 18.6328125,11.9003906 C18.7369797,11.3600233 18.7890625,10.8098986 18.7890625,10.25 C18.7890625,9.07811914 18.5677105,7.95833867 18.125,6.890625 L18.359375,7.53515625 C18.2812496,7.56119805 18.1705736,7.59700498 18.0273438,7.64257812 C17.8841139,7.68815127 17.571617,7.75650996 17.0898438,7.84765625 C16.6080705,7.93880254 16.080732,8.01692676 15.5078125,8.08203125 C15.5989588,8.79818066 15.6445312,9.52082969 15.6445312,10.25 C15.6445312,11.1744838 15.5794277,12.0794227 15.4492188,12.9648438 C16.5950578,13.1080736 17.506507,13.2773428 18.1835938,13.4726562 Z M5.5859375,10.25 C5.5989584,11.1224002 5.67057227,11.988277 5.80078125,12.8476562 C6.92057852,12.75651 8.11197285,12.7044271 9.375,12.6914062 L9.375,8.35546875 C8.91926855,8.35546875 8.4700543,8.3489584 8.02734375,8.3359375 C7.5846332,8.3229166 7.17773623,8.30664072 6.80664062,8.28710938 C6.43554502,8.26757803 6.07422051,8.2447918 5.72265625,8.21875 C5.69661445,8.44010527 5.67382822,8.66145723 5.65429688,8.8828125 C5.63476553,9.10416777 5.61848965,9.3287749 5.60546875,9.55664062 C5.59244785,9.78450635 5.5859375,10.0156238 5.5859375,10.25 Z M10.625,1.578125 L10.625,7.125 C11.0677105,7.1119791 11.4941386,7.0989584 11.9042969,7.0859375 C12.3144552,7.0729166 12.6953107,7.05664072 13.046875,7.03710938 C13.3984393,7.01757803 13.7369775,6.9947918 14.0625,6.96875 C13.8671865,6.03124531 13.5970069,5.18489961 13.2519531,4.4296875 C12.9068993,3.67447539 12.5097679,3.04622646 12.0605469,2.54492188 C11.6113259,2.04361729 11.132815,1.72135488 10.625,1.578125 Z M9.375,1.59765625 C8.98437305,1.72786523 8.6002623,1.96223789 8.22265625,2.30078125 C7.15494258,3.29036953 6.39323145,4.84634355 5.9375,6.96875 C7.00521367,7.05989629 8.15103555,7.1119791 9.375,7.125 L9.375,1.59765625 Z M9.375,13.9414062 C8.20311914,13.9544271 7.10286973,13.9999996 6.07421875,14.078125 C6.25651133,14.7812535 6.48437363,15.4453094 6.7578125,16.0703125 C7.48698281,17.6328203 8.35936992,18.5768213 9.375,18.9023438 L9.375,13.9414062 Z M10.625,18.921875 C11.3281285,18.7135406 11.9726533,18.1764366 12.5585938,17.3105469 C13.1445342,16.4446571 13.6002588,15.3671939 13.9257812,14.078125 C13.444008,14.0390623 12.9264351,14.0097657 12.3730469,13.9902344 C11.8196587,13.970703 11.2369822,13.9544271 10.625,13.9414062 L10.625,18.921875 Z M10.625,12.6914062 C11.9140689,12.7044271 13.0989529,12.75651 14.1796875,12.8476562 C14.3229174,12.0012979 14.3945312,11.1354211 14.3945312,10.25 C14.3945312,9.55989238 14.3489588,8.87630547 14.2578125,8.19921875 C13.1510361,8.29036504 11.9401107,8.34244785 10.625,8.35546875 L10.625,12.6914062 Z M17.890625,6.3828125 C17.4348936,5.45832871 16.8294309,4.63802441 16.0742188,3.921875 C15.3190066,3.20572559 14.4661506,2.639325 13.515625,2.22265625 C13.6718758,2.45703242 13.824869,2.70442578 13.9746094,2.96484375 C14.1243497,3.22526172 14.2675774,3.50520684 14.4042969,3.8046875 C14.5410163,4.10416816 14.664713,4.41666504 14.7753906,4.7421875 C14.8860683,5.06770996 14.9869787,5.40624824 15.078125,5.7578125 C15.1692713,6.10937676 15.2539059,6.47395645 15.3320312,6.8515625 C15.5794283,6.8255207 15.8170562,6.79622412 16.0449219,6.76367188 C16.2727876,6.73111963 16.4746085,6.69856787 16.6503906,6.66601562 C16.8261728,6.63346338 16.9856764,6.60091162 17.1289062,6.56835938 C17.2721361,6.53580713 17.3958328,6.50651055 17.5,6.48046875 C17.6041672,6.45442695 17.6855466,6.4348959 17.7441406,6.421875 C17.8027347,6.4088541 17.8515623,6.3958334 17.890625,6.3828125 Z M7.03125,2.02734375 C6.70572754,2.14453184 6.38020996,2.28124922 6.0546875,2.4375 C4.29686621,3.33594199 2.9817752,4.67056406 2.109375,6.44140625 C2.78646172,6.61067793 3.65884883,6.75390566 4.7265625,6.87109375 C4.94791777,5.88150547 5.25715947,4.97331143 5.65429688,4.14648438 C6.05143428,3.31965732 6.51041406,2.61328418 7.03125,2.02734375 Z M1.66015625,7.61328125 C1.38671738,8.47266055 1.25,9.35155801 1.25,10.25 C1.25,11.3307346 1.44531055,12.3789012 1.8359375,13.3945312 C2.56510781,13.2252596 3.48306738,13.0820318 4.58984375,12.9648438 C4.43359297,12.0664018 4.35546875,11.1614629 4.35546875,10.25 C4.35546875,9.88541484 4.36523428,9.52409033 4.38476562,9.16601562 C4.40429697,8.80794092 4.44010391,8.45312676 4.4921875,8.1015625 C3.28124395,7.95833262 2.33724297,7.79557383 1.66015625,7.61328125 Z M2.3828125,14.546875 C2.90364844,15.4583379 3.56119395,16.2526008 4.35546875,16.9296875 C5.14974355,17.6067742 6.04166172,18.121092 7.03125,18.4726562 C6.56249766,17.9387994 6.14257998,17.3072953 5.77148438,16.578125 C5.40038877,15.8489547 5.09765742,15.0481814 4.86328125,14.1757812 C3.89973477,14.2799484 3.07292012,14.4036451 2.3828125,14.546875 Z M13.515625,18.2773438 C15.2864672,17.5091107 16.653641,16.2851646 17.6171875,14.6054688 C17.4609367,14.5664061 17.2884124,14.5273439 17.0996094,14.4882812 C16.9108063,14.4492186 16.6438819,14.4036461 16.2988281,14.3515625 C15.9537743,14.2994789 15.5924498,14.2473961 15.2148438,14.1953125 C15.0325512,15.0156291 14.7949233,15.7708299 14.5019531,16.4609375 C14.2089829,17.1510451 13.8802102,17.7565078 13.515625,18.2773438 Z" id="Globe---simple-line-icons"></path>
                </g>
            </g>
        </g>
    </g>
</svg>
