
<svg width="16px" height="21px" viewBox="0 0 16 21" version="1.1" xmlns="http://www.w3.org/2000/svg" xmlns:xlink="http://www.w3.org/1999/xlink">
    <!-- Generator: Sketch 46.2 (44496) - http://www.bohemiancoding.com/sketch -->
    <desc>Created with Sketch.</desc>
    <defs></defs>
    <g id="Page-1" stroke="none" stroke-width="1" fill="none" fill-rule="evenodd">
        <g id="NEW-clean-nav-Copy" transform="translate(-595.000000, -6925.000000)" fill="#F6CA63">
            <g id="footer" transform="translate(0.000000, 6871.000000)">
                <g id="Group-11" transform="translate(595.000000, 50.000000)">
                    <path d="M8.078125,4.25 C10.3177195,4.25 12.1275973,4.98566973 13.5078125,6.45703125 C14.8359441,7.88933008 15.5,9.69269746 15.5,11.8671875 C15.5,14.9922031 13.4166875,18.9504969 9.25,23.7421875 C8.96354023,24.0807309 8.63802266,24.25 8.2734375,24.25 L8.21484375,24.25 C8.05859297,24.25 7.89583418,24.2044275 7.7265625,24.1132812 C7.55729082,24.022135 7.44010449,23.9472659 7.375,23.8886719 C7.30989551,23.8300778 7.26432305,23.7812502 7.23828125,23.7421875 C7.16015586,23.6640621 7.04296953,23.5338551 6.88671875,23.3515625 C6.36588281,22.7526012 5.96224102,22.2838559 5.67578125,21.9453125 C5.38932148,21.6067691 4.98567969,21.1152376 4.46484375,20.4707031 C3.94400781,19.8261687 3.53060049,19.2792991 3.22460938,18.8300781 C2.91861826,18.3808571 2.57031445,17.8307324 2.1796875,17.1796875 C1.78906055,16.5286426 1.48958438,15.9362006 1.28125,15.4023438 C1.07291563,14.8684869 0.890625781,14.2890656 0.734375,13.6640625 C0.578124219,13.0390594 0.5,12.440107 0.5,11.8671875 C0.5,10.8515574 0.705076074,9.87500469 1.11523438,8.9375 C1.52539268,7.99999531 2.06900703,7.18945654 2.74609375,6.50585938 C3.42318047,5.82226221 4.22720889,5.27539268 5.15820312,4.86523438 C6.08919736,4.45507607 7.06249492,4.25 8.078125,4.25 Z M8.3125,22.9023438 C12.2708531,18.3580502 14.25,14.6797016 14.25,11.8671875 C14.25,11.0468709 14.1263033,10.2656287 13.8789062,9.5234375 C13.6315092,8.78124629 13.2636743,8.10416973 12.7753906,7.4921875 C12.2871069,6.88020527 11.639327,6.39518408 10.8320312,6.03710938 C10.0247355,5.67903467 9.10677598,5.5 8.078125,5.5 C6.94530684,5.5 5.89388506,5.78645547 4.92382812,6.359375 C3.95377119,6.93229453 3.18229453,7.71028154 2.609375,8.69335938 C2.03645547,9.67643721 1.75,10.7343693 1.75,11.8671875 C1.75,12.3750025 1.82161387,12.9121065 1.96484375,13.4785156 C2.10807363,14.0449247 2.28059795,14.5722632 2.48242188,15.0605469 C2.6842458,15.5488306 2.97395645,16.0957001 3.3515625,16.7011719 C3.72916855,17.3066437 4.06119648,17.8209614 4.34765625,18.2441406 C4.63411602,18.6673198 5.02473711,19.1848928 5.51953125,19.796875 C6.01432539,20.4088572 6.39843613,20.8743474 6.671875,21.1933594 C6.94531387,21.5123714 7.32942461,21.9583305 7.82421875,22.53125 L8.15625,22.9023438 L8.234375,22.9804688 C8.2734377,22.954427 8.2994791,22.9283855 8.3125,22.9023438 Z M8.01953125,8.01953125 C8.52734629,8.01953125 9.01236748,8.1204417 9.47460938,8.32226562 C9.93685127,8.52408955 10.3372379,8.79101396 10.6757812,9.12304688 C11.0143246,9.45507979 11.281249,9.85221123 11.4765625,10.3144531 C11.671876,10.776695 11.7695312,11.2617162 11.7695312,11.7695312 C11.7695312,12.8112031 11.4049516,13.6966109 10.6757812,14.4257812 C9.94661094,15.1549516 9.0644583,15.5195312 8.02929688,15.5195312 C6.99413545,15.5195312 6.10872764,15.1549516 5.37304688,14.4257812 C4.63736611,13.6966109 4.26953125,12.8112031 4.26953125,11.7695312 C4.26953125,11.3658834 4.33137959,10.9752623 4.45507812,10.5976562 C4.57877666,10.2200502 4.75781133,9.87500156 4.9921875,9.5625 C5.22656367,9.24999844 5.49674326,8.97981885 5.80273438,8.75195312 C6.10872549,8.5240874 6.45377412,8.34505273 6.83789062,8.21484375 C7.22200713,8.08463477 7.6158834,8.01953125 8.01953125,8.01953125 Z M8.01953125,14.2695312 C8.55338809,14.2695312 9.0351541,14.1132828 9.46484375,13.8007812 C10.1549514,13.2929662 10.5,12.6093793 10.5,11.75 C10.5,11.0598924 10.2558618,10.4707056 9.76757812,9.98242188 C9.27929443,9.49413818 8.69010762,9.25 8,9.25 C7.30989238,9.25 6.72070557,9.49413818 6.23242188,9.98242188 C5.74413818,10.4707056 5.5,11.0598924 5.5,11.75 C5.5,12.4401076 5.74739336,13.0325496 6.2421875,13.5273438 C6.73698164,14.0221379 7.32942363,14.2695312 8.01953125,14.2695312 Z" id="Location-pin---simple-line-icons"></path>
                </g>
            </g>
        </g>
    </g>
</svg>
