<?xml version="1.0" encoding="UTF-8" standalone="no"?>
<!DOCTYPE svg PUBLIC "-//W3C//DTD SVG 1.1//EN" "http://www.w3.org/Graphics/SVG/1.1/DTD/svg11.dtd">
<svg version="1.1" xmlns="http://www.w3.org/2000/svg" xmlns:xlink="http://www.w3.org/1999/xlink" preserveAspectRatio="xMidYMid meet" viewBox="0 0 290 290" width="290" height="290"><defs><path d="M210.22 3L210.22 67.83L156.85 67.83L145.61 79.06L145.61 132.19L84.28 132.19L81 129.15L81 67.83L134.14 67.83L145.61 56.36L145.61 3L210.22 3Z" id="b9Ar2a3Cq"></path><path d="M3 78.4L67.61 78.4L67.61 131.53L79.08 143.24L132.22 143.24L132.22 204.32L128.94 207.6L67.61 207.6L67.61 154.47L56.14 143.24L3 143.24L3 78.4Z" id="d4b9oSdiEy"></path><path d="M288.22 210.2L223.61 210.2L223.61 157.07L212.37 145.84L159 145.84L159 84.52L162.28 81L223.61 81L223.61 134.13L235.08 145.84L288.22 145.84L288.22 210.2Z" id="a2bSBvwPdP"></path><linearGradient id="gradienta26qqenrcQ" gradientUnits="userSpaceOnUse" x1="223.61" y1="81" x2="223.61" y2="288.6"><stop style="stop-color: #f6ca63;stop-opacity: 1" offset="0%"></stop><stop style="stop-color: #a67c20;stop-opacity: 1" offset="100%"></stop></linearGradient><path d="M81 288.2L81 223.6L134.14 223.6L145.61 212.13L145.61 159L206.71 159L210.22 162.51L210.22 223.6L156.85 223.6L145.61 235.07L145.61 288.2L81 288.2Z" id="a4th9H0aPY"></path><linearGradient id="gradientaGs5jFem" gradientUnits="userSpaceOnUse" x1="145.61" y1="288.19" x2="145.61" y2="80.59"><stop style="stop-color: #a2791f;stop-opacity: 1" offset="0%"></stop><stop style="stop-color: #f6ca63;stop-opacity: 1" offset="100%"></stop></linearGradient></defs><g><g><g><g><use xlink:href="#b9Ar2a3Cq" opacity="1" fill-opacity="0" stroke="#e0b551" stroke-width="3" stroke-opacity="1"></use></g></g><g><g><use xlink:href="#d4b9oSdiEy" opacity="1" fill-opacity="0" stroke="#e0b551" stroke-width="3" stroke-opacity="1"></use></g></g><g><use xlink:href="#a2bSBvwPdP" opacity="1" fill="url(#gradienta26qqenrcQ)"></use><g><use xlink:href="#a2bSBvwPdP" opacity="1" fill-opacity="0" stroke="#000000" stroke-width="1" stroke-opacity="0"></use></g></g><g><use xlink:href="#a4th9H0aPY" opacity="1" fill="url(#gradientaGs5jFem)"></use><g><use xlink:href="#a4th9H0aPY" opacity="1" fill-opacity="0" stroke="#000000" stroke-width="1" stroke-opacity="0"></use></g></g></g></g></svg>