<?xml version="1.0" encoding="UTF-8" standalone="no"?>
<!DOCTYPE svg PUBLIC "-//W3C//DTD SVG 1.1//EN" "http://www.w3.org/Graphics/SVG/1.1/DTD/svg11.dtd">
<svg version="1.1" xmlns="http://www.w3.org/2000/svg" xmlns:xlink="http://www.w3.org/1999/xlink" preserveAspectRatio="xMidYMid meet" viewBox="0 0 862 316.7" width="862" height="316.7"><defs><path d="M166.47 99.14L124.36 99.14L115.5 108L115.5 149.91L67.12 149.91L64.53 147.51L64.53 99.14L106.45 99.14L115.5 90.09L115.5 48L166.47 48L166.47 99.14Z" id="d10pAMjcVx"></path><path d="M53.97 107.48L53.97 149.39L63.01 158.63L104.93 158.63L104.93 206.81L102.35 209.4L53.97 209.4L53.97 167.49L44.92 158.63L3 158.63L3 107.48L53.97 107.48Z" id="g1tebmzl0I"></path><path d="M177.03 211.45L177.03 169.54L168.16 160.68L126.06 160.68L126.06 112.31L128.65 109.53L177.03 109.53L177.03 151.44L186.08 160.68L228 160.68L228 211.45L177.03 211.45Z" id="bk9eOnZcU"></path><linearGradient id="gradienta16td6Dcw" gradientUnits="userSpaceOnUse" x1="177.03" y1="109.53" x2="177.03" y2="273.29"><stop style="stop-color: #f6ca63;stop-opacity: 1" offset="0%"></stop><stop style="stop-color: #a67c20;stop-opacity: 1" offset="100%"></stop></linearGradient><path d="M177.03 211.45L177.03 169.54L168.16 160.68L126.06 160.68L126.06 112.31L128.65 109.53L177.03 109.53L177.03 151.44L186.08 160.68L228 160.68L228 211.45L177.03 211.45Z" id="aaPcyg2F9"></path><path d="M64.53 222.02L106.45 222.02L115.5 212.97L115.5 171.06L163.7 171.06L166.47 173.83L166.47 222.02L124.36 222.02L115.5 231.07L115.5 272.98L64.53 272.98L64.53 222.02Z" id="dcefGr0QM"></path><linearGradient id="gradientb1GZZv0oOR" gradientUnits="userSpaceOnUse" x1="115.5" y1="272.97" x2="115.5" y2="109.21"><stop style="stop-color: #a2791f;stop-opacity: 1" offset="0%"></stop><stop style="stop-color: #f6ca63;stop-opacity: 1" offset="100%"></stop></linearGradient><path d="M64.53 222.02L106.45 222.02L115.5 212.97L115.5 171.06L163.7 171.06L166.47 173.83L166.47 222.02L124.36 222.02L115.5 231.07L115.5 272.98L64.53 272.98L64.53 222.02Z" id="a4BlAhrJ3N"></path><path d="M501.68 75.72L443.29 75.72L431 88L431 146.12L363.91 146.12L360.32 142.8L360.32 75.72L418.45 75.72L431 63.17L431 4.8L501.68 4.8L501.68 75.72Z" id="c2DSkVkJV7"></path><path d="M345.68 87.28L345.68 145.4L358.22 158.21L416.35 158.21L416.35 225.02L412.76 228.61L345.68 228.61L345.68 170.49L333.13 158.21L275 158.21L275 87.28L345.68 87.28Z" id="c4c830qtUo"></path><path d="M516.32 231.46L516.32 173.34L504.03 161.05L445.65 161.05L445.65 93.97L449.23 90.12L516.32 90.12L516.32 148.24L528.87 161.05L587 161.05L587 231.46L516.32 231.46Z" id="e1IivT3QB"></path><linearGradient id="gradientcBB0KJjgv" gradientUnits="userSpaceOnUse" x1="516.32" y1="90.12" x2="516.32" y2="317.22"><stop style="stop-color: #f6ca63;stop-opacity: 1" offset="0%"></stop><stop style="stop-color: #a67c20;stop-opacity: 1" offset="100%"></stop></linearGradient><path d="M516.32 231.46L516.32 173.34L504.03 161.05L445.65 161.05L445.65 93.97L449.23 90.12L516.32 90.12L516.32 148.24L528.87 161.05L587 161.05L587 231.46L516.32 231.46Z" id="e1o0z1z9Rb"></path><path d="M360.32 246.11L418.45 246.11L431 233.57L431 175.45L497.84 175.45L501.68 179.29L501.68 246.11L443.29 246.11L431 258.66L431 316.78L360.32 316.78L360.32 246.11Z" id="aiFHbMNhr"></path><linearGradient id="gradientb19eGpyKXI" gradientUnits="userSpaceOnUse" x1="431" y1="316.77" x2="431" y2="89.68"><stop style="stop-color: #a2791f;stop-opacity: 1" offset="0%"></stop><stop style="stop-color: #f6ca63;stop-opacity: 1" offset="100%"></stop></linearGradient><path d="M360.32 246.11L418.45 246.11L431 233.57L431 175.45L497.84 175.45L501.68 179.29L501.68 246.11L443.29 246.11L431 258.66L431 316.78L360.32 316.78L360.32 246.11Z" id="anUZZ2vMo"></path><path d="M798.46 99.14L756.36 99.14L747.5 108L747.5 149.91L699.11 149.91L696.53 147.51L696.53 99.14L738.45 99.14L747.5 90.09L747.5 48L798.46 48L798.46 99.14Z" id="axsYiWR42"></path><path d="M685.96 107.48L685.96 149.39L695.01 158.63L736.93 158.63L736.93 206.81L734.34 209.4L685.96 209.4L685.96 167.49L676.92 158.63L635 158.63L635 107.48L685.96 107.48Z" id="bm3QBIXFc"></path><path d="M809.03 211.45L809.03 169.54L800.16 160.68L758.06 160.68L758.06 112.31L760.65 109.53L809.03 109.53L809.03 151.44L818.07 160.68L860 160.68L860 211.45L809.03 211.45Z" id="a7kWlYCxm"></path><linearGradient id="gradientbFwoE3KDB" gradientUnits="userSpaceOnUse" x1="809.03" y1="109.53" x2="809.03" y2="273.3"><stop style="stop-color: #f6ca63;stop-opacity: 1" offset="0%"></stop><stop style="stop-color: #a67c20;stop-opacity: 1" offset="100%"></stop></linearGradient><path d="M809.03 211.45L809.03 169.54L800.16 160.68L758.06 160.68L758.06 112.31L760.65 109.53L809.03 109.53L809.03 151.44L818.07 160.68L860 160.68L860 211.45L809.03 211.45Z" id="b3kbqVVtDP"></path><path d="M696.53 222.02L738.45 222.02L747.5 212.97L747.5 171.06L795.69 171.06L798.46 173.83L798.46 222.02L756.36 222.02L747.5 231.07L747.5 272.98L696.53 272.98L696.53 222.02Z" id="a1btYewpm5"></path><linearGradient id="gradientb1w84oyb8O" gradientUnits="userSpaceOnUse" x1="747.5" y1="272.97" x2="747.5" y2="109.21"><stop style="stop-color: #a2791f;stop-opacity: 1" offset="0%"></stop><stop style="stop-color: #f6ca63;stop-opacity: 1" offset="100%"></stop></linearGradient><path d="M696.53 222.02L738.45 222.02L747.5 212.97L747.5 171.06L795.69 171.06L798.46 173.83L798.46 222.02L756.36 222.02L747.5 231.07L747.5 272.98L696.53 272.98L696.53 222.02Z" id="cbvFJwqN5"></path></defs><g><g><g><use xlink:href="#d10pAMjcVx" opacity="1" fill="#000000" fill-opacity="0"></use><g><use xlink:href="#d10pAMjcVx" opacity="1" fill-opacity="0" stroke="#e0b551" stroke-width="3" stroke-opacity="1"></use></g></g><g><use xlink:href="#g1tebmzl0I" opacity="1" fill="#000000" fill-opacity="0"></use><g><use xlink:href="#g1tebmzl0I" opacity="1" fill-opacity="0" stroke="#e0b551" stroke-width="3" stroke-opacity="1"></use></g></g><g><use xlink:href="#bk9eOnZcU" opacity="1" fill="url(#gradienta16td6Dcw)"></use><g><use xlink:href="#bk9eOnZcU" opacity="1" fill-opacity="0" stroke="#000000" stroke-width="1" stroke-opacity="0"></use></g></g><g><use xlink:href="#aaPcyg2F9" opacity="1" fill="#000000" fill-opacity="0"></use><g><use xlink:href="#aaPcyg2F9" opacity="1" fill-opacity="0" stroke="#000000" stroke-width="1" stroke-opacity="0"></use></g></g><g><use xlink:href="#dcefGr0QM" opacity="1" fill="url(#gradientb1GZZv0oOR)"></use><g><use xlink:href="#dcefGr0QM" opacity="1" fill-opacity="0" stroke="#000000" stroke-width="1" stroke-opacity="0"></use></g></g><g><use xlink:href="#a4BlAhrJ3N" opacity="1" fill="#000000" fill-opacity="0"></use><g><use xlink:href="#a4BlAhrJ3N" opacity="1" fill-opacity="0" stroke="#000000" stroke-width="1" stroke-opacity="0"></use></g></g><g><use xlink:href="#c2DSkVkJV7" opacity="1" fill="#000000" fill-opacity="0"></use><g><use xlink:href="#c2DSkVkJV7" opacity="1" fill-opacity="0" stroke="#e0b551" stroke-width="3" stroke-opacity="1"></use></g></g><g><use xlink:href="#c4c830qtUo" opacity="1" fill="#000000" fill-opacity="0"></use><g><use xlink:href="#c4c830qtUo" opacity="1" fill-opacity="0" stroke="#e0b551" stroke-width="3" stroke-opacity="1"></use></g></g><g><use xlink:href="#e1IivT3QB" opacity="1" fill="url(#gradientcBB0KJjgv)"></use><g><use xlink:href="#e1IivT3QB" opacity="1" fill-opacity="0" stroke="#000000" stroke-width="1" stroke-opacity="0"></use></g></g><g><use xlink:href="#e1o0z1z9Rb" opacity="1" fill="#000000" fill-opacity="0"></use><g><use xlink:href="#e1o0z1z9Rb" opacity="1" fill-opacity="0" stroke="#000000" stroke-width="1" stroke-opacity="0"></use></g></g><g><use xlink:href="#aiFHbMNhr" opacity="1" fill="url(#gradientb19eGpyKXI)"></use><g><use xlink:href="#aiFHbMNhr" opacity="1" fill-opacity="0" stroke="#000000" stroke-width="1" stroke-opacity="0"></use></g></g><g><use xlink:href="#anUZZ2vMo" opacity="1" fill="#000000" fill-opacity="0"></use><g><use xlink:href="#anUZZ2vMo" opacity="1" fill-opacity="0" stroke="#000000" stroke-width="1" stroke-opacity="0"></use></g></g><g><use xlink:href="#axsYiWR42" opacity="1" fill="#000000" fill-opacity="0"></use><g><use xlink:href="#axsYiWR42" opacity="1" fill-opacity="0" stroke="#e0b551" stroke-width="3" stroke-opacity="1"></use></g></g><g><use xlink:href="#bm3QBIXFc" opacity="1" fill="#000000" fill-opacity="0"></use><g><use xlink:href="#bm3QBIXFc" opacity="1" fill-opacity="0" stroke="#e0b551" stroke-width="3" stroke-opacity="1"></use></g></g><g><use xlink:href="#a7kWlYCxm" opacity="1" fill="url(#gradientbFwoE3KDB)"></use><g><use xlink:href="#a7kWlYCxm" opacity="1" fill-opacity="0" stroke="#000000" stroke-width="1" stroke-opacity="0"></use></g></g><g><use xlink:href="#b3kbqVVtDP" opacity="1" fill="#000000" fill-opacity="0"></use><g><use xlink:href="#b3kbqVVtDP" opacity="1" fill-opacity="0" stroke="#000000" stroke-width="1" stroke-opacity="0"></use></g></g><g><use xlink:href="#a1btYewpm5" opacity="1" fill="url(#gradientb1w84oyb8O)"></use><g><use xlink:href="#a1btYewpm5" opacity="1" fill-opacity="0" stroke="#000000" stroke-width="1" stroke-opacity="0"></use></g></g><g><use xlink:href="#cbvFJwqN5" opacity="1" fill="#000000" fill-opacity="0"></use><g><use xlink:href="#cbvFJwqN5" opacity="1" fill-opacity="0" stroke="#000000" stroke-width="1" stroke-opacity="0"></use></g></g></g></g></svg>