<?xml version="1.0" encoding="UTF-8" standalone="no"?>
<!DOCTYPE svg PUBLIC "-//W3C//DTD SVG 1.1//EN" "http://www.w3.org/Graphics/SVG/1.1/DTD/svg11.dtd">
<svg version="1.1" xmlns="http://www.w3.org/2000/svg" xmlns:xlink="http://www.w3.org/1999/xlink" preserveAspectRatio="xMidYMid meet" viewBox="0 0 920 316.7" width="920" height="316.7"><defs><path d="M157.04 105.93L117.36 105.93L109.01 114.27L109.01 153.77L63.42 153.77L60.98 151.51L60.98 105.93L100.48 105.93L109.01 97.4L109.01 57.74L157.04 57.74L157.04 105.93Z" id="boVok2rz1"></path><path d="M51.03 113.78L51.03 153.28L59.55 161.98L99.05 161.98L99.05 207.38L96.62 209.82L51.03 209.82L51.03 170.33L42.5 161.98L3 161.98L3 113.78L51.03 113.78Z" id="a1ap1lbT8V"></path><path d="M166.99 211.75L166.99 172.26L158.63 163.91L118.96 163.91L118.96 118.33L121.4 115.72L166.99 115.72L166.99 155.21L175.52 163.91L215.02 163.91L215.02 211.75L166.99 211.75Z" id="b13kmfRLja"></path><linearGradient id="gradienta2suhRvAZd" gradientUnits="userSpaceOnUse" x1="166.99" y1="115.72" x2="166.99" y2="270.03"><stop style="stop-color: #f6ca63;stop-opacity: 1" offset="0%"></stop><stop style="stop-color: #a67c20;stop-opacity: 1" offset="100%"></stop></linearGradient><path d="M166.99 211.75L166.99 172.26L158.63 163.91L118.96 163.91L118.96 118.33L121.4 115.72L166.99 115.72L166.99 155.21L175.52 163.91L215.02 163.91L215.02 211.75L166.99 211.75Z" id="a6FFsaD706"></path><path d="M60.98 221.72L100.48 221.72L109.01 213.19L109.01 173.7L154.43 173.7L157.04 176.31L157.04 221.72L117.36 221.72L109.01 230.24L109.01 269.74L60.98 269.74L60.98 221.72Z" id="bddgwLbSP"></path><linearGradient id="gradientbiFsHcyaY" gradientUnits="userSpaceOnUse" x1="109.01" y1="269.73" x2="109.01" y2="115.41"><stop style="stop-color: #a2791f;stop-opacity: 1" offset="0%"></stop><stop style="stop-color: #f6ca63;stop-opacity: 1" offset="100%"></stop></linearGradient><path d="M60.98 221.72L100.48 221.72L109.01 213.19L109.01 173.7L154.43 173.7L157.04 176.31L157.04 221.72L117.36 221.72L109.01 230.24L109.01 269.74L60.98 269.74L60.98 221.72Z" id="h1CUVuazGj"></path><path d="M311.53 0L265 316" id="b4JabWY4M"></path><path d="M311.53 0L265 316" id="eIf4oh1O9"></path><path d="M370.99 88.12C370.99 74.29 381.4 57.74 392.28 57.74C401.2 57.74 445.81 57.74 526.1 57.74" id="ab1JEF4VnQ"></path><path d="M370.99 88.12C370.99 74.29 381.4 57.74 392.28 57.74C401.2 57.74 445.81 57.74 526.1 57.74" id="cCaer2IWw"></path><path d="M629.5 88.12C629.5 74.29 612.69 57.74 601.58 57.74C596.21 57.74 569.33 57.74 520.92 57.74" id="b341DzhxWe"></path><path d="M629.5 88.12C629.5 74.29 612.69 57.74 601.58 57.74C596.21 57.74 569.33 57.74 520.92 57.74" id="a1yj4e4b0c"></path><path d="M515.76 179.27C515.76 165.45 526.16 148.89 537.04 148.89C545.96 148.89 590.57 148.89 670.86 148.89" id="b56k7ZONEx"></path><path d="M515.76 179.27C515.76 165.45 526.16 148.89 537.04 148.89C545.96 148.89 590.57 148.89 670.86 148.89" id="a173mraA04"></path><path d="M774.27 179.27C774.27 165.45 757.46 148.89 746.35 148.89C740.97 148.89 714.09 148.89 665.69 148.89" id="b4nguB0H6e"></path><path d="M774.27 179.27C774.27 165.45 757.46 148.89 746.35 148.89C740.97 148.89 714.09 148.89 665.69 148.89" id="b3eceSVX52"></path><path d="M660.52 270.43C660.52 256.6 670.92 240.04 681.82 240.04C690.74 240.04 735.34 240.04 815.62 240.04" id="j1cqRmJme"></path><path d="M660.52 270.43C660.52 256.6 670.92 240.04 681.82 240.04C690.74 240.04 735.34 240.04 815.62 240.04" id="a29naipSSg"></path><path d="M919.03 270.43C919.03 256.6 902.22 240.04 891.11 240.04C885.73 240.04 858.85 240.04 810.46 240.04" id="a1rPoxEslF"></path><path d="M919.03 270.43C919.03 256.6 902.22 240.04 891.11 240.04C885.73 240.04 858.85 240.04 810.46 240.04" id="atuJ76PKL"></path><path d="M370.99 270.43C370.99 256.6 381.4 240.04 392.28 240.04C401.2 240.04 445.81 240.04 526.1 240.04" id="awHK8J9UR"></path><path d="M370.99 270.43C370.99 256.6 381.4 240.04 392.28 240.04C401.2 240.04 445.81 240.04 526.1 240.04" id="b1BHWQKgYP"></path><path d="M629.5 270.43C629.5 256.6 612.69 240.04 601.58 240.04C596.21 240.04 569.33 240.04 520.92 240.04" id="bJ0aYPueL"></path><path d="M629.5 270.43C629.5 256.6 612.69 240.04 601.58 240.04C596.21 240.04 569.33 240.04 520.92 240.04" id="abG238NJA"></path><path d="M484.73 179.27C484.73 165.45 467.92 148.89 456.82 148.89C451.45 148.89 424.55 148.89 376.16 148.89" id="h1VXjB6XKF"></path><path d="M484.73 179.27C484.73 165.45 467.92 148.89 456.82 148.89C451.45 148.89 424.55 148.89 376.16 148.89" id="ba0D8hRSj"></path></defs><g><g><g><use xlink:href="#boVok2rz1" opacity="1" fill="#000000" fill-opacity="0"></use><g><use xlink:href="#boVok2rz1" opacity="1" fill-opacity="0" stroke="#e0b551" stroke-width="3" stroke-opacity="1"></use></g></g><g><use xlink:href="#a1ap1lbT8V" opacity="1" fill="#000000" fill-opacity="0"></use><g><use xlink:href="#a1ap1lbT8V" opacity="1" fill-opacity="0" stroke="#e0b551" stroke-width="3" stroke-opacity="1"></use></g></g><g><use xlink:href="#b13kmfRLja" opacity="1" fill="url(#gradienta2suhRvAZd)"></use><g><use xlink:href="#b13kmfRLja" opacity="1" fill-opacity="0" stroke="#000000" stroke-width="1" stroke-opacity="0"></use></g></g><g><use xlink:href="#a6FFsaD706" opacity="1" fill="#000000" fill-opacity="0"></use><g><use xlink:href="#a6FFsaD706" opacity="1" fill-opacity="0" stroke="#000000" stroke-width="1" stroke-opacity="0"></use></g></g><g><use xlink:href="#bddgwLbSP" opacity="1" fill="url(#gradientbiFsHcyaY)"></use><g><use xlink:href="#bddgwLbSP" opacity="1" fill-opacity="0" stroke="#000000" stroke-width="1" stroke-opacity="0"></use></g></g><g><use xlink:href="#h1CUVuazGj" opacity="1" fill="#000000" fill-opacity="0"></use><g><use xlink:href="#h1CUVuazGj" opacity="1" fill-opacity="0" stroke="#000000" stroke-width="1" stroke-opacity="0"></use></g></g><g><use xlink:href="#b4JabWY4M" opacity="1" fill="#000000" fill-opacity="0"></use><g><use xlink:href="#b4JabWY4M" opacity="1" fill-opacity="0" stroke="#000000" stroke-width="1" stroke-opacity="0"></use></g></g><g><use xlink:href="#eIf4oh1O9" opacity="1" fill="#000000" fill-opacity="0"></use><g><use xlink:href="#eIf4oh1O9" opacity="1" fill-opacity="0" stroke="#ffffff" stroke-width="1" stroke-opacity="1"></use></g></g><g><use xlink:href="#ab1JEF4VnQ" opacity="1" fill="#000000" fill-opacity="0"></use><g><use xlink:href="#ab1JEF4VnQ" opacity="1" fill-opacity="0" stroke="#000000" stroke-width="1" stroke-opacity="0"></use></g></g><g><use xlink:href="#cCaer2IWw" opacity="1" fill="#000000" fill-opacity="0"></use><g><use xlink:href="#cCaer2IWw" opacity="1" fill-opacity="0" stroke="#f6ca63" stroke-width="2" stroke-opacity="1"></use></g></g><g><use xlink:href="#b341DzhxWe" opacity="1" fill="#000000" fill-opacity="0"></use><g><use xlink:href="#b341DzhxWe" opacity="1" fill-opacity="0" stroke="#000000" stroke-width="1" stroke-opacity="0"></use></g></g><g><use xlink:href="#a1yj4e4b0c" opacity="1" fill="#000000" fill-opacity="0"></use><g><use xlink:href="#a1yj4e4b0c" opacity="1" fill-opacity="0" stroke="#f6ca63" stroke-width="2" stroke-opacity="1"></use></g></g><g><use xlink:href="#b56k7ZONEx" opacity="1" fill="#000000" fill-opacity="0"></use><g><use xlink:href="#b56k7ZONEx" opacity="1" fill-opacity="0" stroke="#000000" stroke-width="1" stroke-opacity="0"></use></g></g><g><use xlink:href="#a173mraA04" opacity="1" fill="#000000" fill-opacity="0"></use><g><use xlink:href="#a173mraA04" opacity="1" fill-opacity="0" stroke="#f6ca63" stroke-width="2" stroke-opacity="1"></use></g></g><g><use xlink:href="#b4nguB0H6e" opacity="1" fill="#000000" fill-opacity="0"></use><g><use xlink:href="#b4nguB0H6e" opacity="1" fill-opacity="0" stroke="#000000" stroke-width="1" stroke-opacity="0"></use></g></g><g><use xlink:href="#b3eceSVX52" opacity="1" fill="#000000" fill-opacity="0"></use><g><use xlink:href="#b3eceSVX52" opacity="1" fill-opacity="0" stroke="#f6ca63" stroke-width="2" stroke-opacity="1"></use></g></g><g><use xlink:href="#j1cqRmJme" opacity="1" fill="#000000" fill-opacity="0"></use><g><use xlink:href="#j1cqRmJme" opacity="1" fill-opacity="0" stroke="#000000" stroke-width="1" stroke-opacity="0"></use></g></g><g><use xlink:href="#a29naipSSg" opacity="1" fill="#000000" fill-opacity="0"></use><g><use xlink:href="#a29naipSSg" opacity="1" fill-opacity="0" stroke="#f6ca63" stroke-width="2" stroke-opacity="1"></use></g></g><g><use xlink:href="#a1rPoxEslF" opacity="1" fill="#000000" fill-opacity="0"></use><g><use xlink:href="#a1rPoxEslF" opacity="1" fill-opacity="0" stroke="#000000" stroke-width="1" stroke-opacity="0"></use></g></g><g><use xlink:href="#atuJ76PKL" opacity="1" fill="#000000" fill-opacity="0"></use><g><use xlink:href="#atuJ76PKL" opacity="1" fill-opacity="0" stroke="#f6ca63" stroke-width="2" stroke-opacity="1"></use></g></g><g><use xlink:href="#awHK8J9UR" opacity="1" fill="#000000" fill-opacity="0"></use><g><use xlink:href="#awHK8J9UR" opacity="1" fill-opacity="0" stroke="#000000" stroke-width="1" stroke-opacity="0"></use></g></g><g><use xlink:href="#b1BHWQKgYP" opacity="1" fill="#000000" fill-opacity="0"></use><g><use xlink:href="#b1BHWQKgYP" opacity="1" fill-opacity="0" stroke="#f6ca63" stroke-width="2" stroke-opacity="1"></use></g></g><g><use xlink:href="#bJ0aYPueL" opacity="1" fill="#000000" fill-opacity="0"></use><g><use xlink:href="#bJ0aYPueL" opacity="1" fill-opacity="0" stroke="#000000" stroke-width="1" stroke-opacity="0"></use></g></g><g><use xlink:href="#abG238NJA" opacity="1" fill="#000000" fill-opacity="0"></use><g><use xlink:href="#abG238NJA" opacity="1" fill-opacity="0" stroke="#f6ca63" stroke-width="2" stroke-opacity="1"></use></g></g><g><use xlink:href="#h1VXjB6XKF" opacity="1" fill="#000000" fill-opacity="0"></use><g><use xlink:href="#h1VXjB6XKF" opacity="1" fill-opacity="0" stroke="#000000" stroke-width="1" stroke-opacity="0"></use></g></g><g><use xlink:href="#ba0D8hRSj" opacity="1" fill="#000000" fill-opacity="0"></use><g><use xlink:href="#ba0D8hRSj" opacity="1" fill-opacity="0" stroke="#f6ca63" stroke-width="2" stroke-opacity="1"></use></g></g></g></g></svg>