
<svg width="159px" height="115px" viewBox="0 0 159 115" version="1.1" xmlns="http://www.w3.org/2000/svg" xmlns:xlink="http://www.w3.org/1999/xlink">
    <!-- Generator: Sketch 46.2 (44496) - http://www.bohemiancoding.com/sketch -->
    <desc>Created with Sketch.</desc>
    <defs></defs>
    <g id="Page-1" stroke="none" stroke-width="1" fill="red" fill-rule="evenodd">
        <g id="NEW-clean-nav-Copy" transform="translate(-290.000000, -5349.000000)" stroke="#F6CA63" stroke-width="1" fill="#EBCB6A">
            <g id="start-investing" transform="translate(0.000000, 4973.000000)">
                <g id="Group-6" transform="translate(236.000000, 376.000000)">
                    <path d="M130.960938,112 L125.199219,97.15625 L124.417969,97.15625 C119.404923,103.471386 114.245469,107.849597 108.939453,110.291016 C103.633437,112.732434 96.7161885,113.953125 88.1875,113.953125 C77.7056768,113.953125 69.4538062,110.958363 63.4316406,104.96875 C57.4094751,98.9791367 54.3984375,90.4505762 54.3984375,79.3828125 C54.3984375,67.7942129 58.4511313,59.2493765 66.5566406,53.7480469 C74.6621499,48.2467173 86.885335,45.2031279 103.226562,44.6171875 L122.171875,44.03125 L122.171875,39.2460938 C122.171875,28.1783301 116.507869,22.6445312 105.179688,22.6445312 C96.4556855,22.6445312 86.2018818,25.2812236 74.4179688,30.5546875 L64.5546875,10.4375 C77.1198545,3.86194629 91.0520068,0.57421875 106.351562,0.57421875 C121.000073,0.57421875 132.23043,3.76429102 140.042969,10.1445312 C147.855508,16.5247715 151.761719,26.2251953 151.761719,39.2460938 L151.761719,112 L130.960938,112 Z M122.171875,61.4140625 L110.648438,61.8046875 C101.98954,62.0651055 95.544292,63.6275898 91.3125,66.4921875 C87.080708,69.3567852 84.9648438,73.7187207 84.9648438,79.578125 C84.9648438,87.9766045 89.7825039,92.1757812 99.4179688,92.1757812 C106.319045,92.1757812 111.836568,90.190124 115.970703,86.21875 C120.104838,82.247376 122.171875,76.9739912 122.171875,70.3984375 L122.171875,61.4140625 Z M178.226562,98.0351562 C178.226562,92.5663789 179.691392,88.4323057 182.621094,85.6328125 C185.550796,82.8333193 189.815076,81.4335938 195.414062,81.4335938 C200.817735,81.4335938 205.000636,82.8658711 207.962891,85.7304688 C210.925145,88.5950664 212.40625,92.6965879 212.40625,98.0351562 C212.40625,103.178411 210.908869,107.231105 207.914062,110.193359 C204.919256,113.155614 200.752631,114.636719 195.414062,114.636719 C189.945285,114.636719 185.713557,113.188166 182.71875,110.291016 C179.723943,107.393866 178.226562,103.30862 178.226562,98.0351562 Z" id="a."></path>
                </g>
            </g>
        </g>
    </g>
</svg>
