
<svg width="158px" height="156px" viewBox="0 0 158 156" version="1.1" xmlns="http://www.w3.org/2000/svg" xmlns:xlink="http://www.w3.org/1999/xlink">
    <!-- Generator: Sketch 46.2 (44496) - http://www.bohemiancoding.com/sketch -->
    <desc>Created with Sketch.</desc>
    <defs></defs>
    <g id="Page-1" stroke="none" stroke-width="1" fill="none" fill-rule="evenodd">
        <g id="NEW-clean-nav-Copy" transform="translate(-297.000000, -5308.000000)" stroke="#F6CA63" stroke-width="1" fill="#EBCB6A">
            <g id="start-investing" transform="translate(0.000000, 4973.000000)">
                <g id="Group-6" transform="translate(236.000000, 274.000000)">
                    <path d="M122.367188,102.769531 C135.257877,102.769531 145.348922,107.798778 152.640625,117.857422 C159.932328,127.916066 163.578125,141.701735 163.578125,159.214844 C163.578125,177.248788 159.818397,191.213492 152.298828,201.109375 C144.779259,211.005258 134.541731,215.953125 121.585938,215.953125 C108.760353,215.953125 98.7018594,211.298224 91.4101562,201.988281 L89.359375,201.988281 L84.3789062,214 L61.625,214 L61.625,62.046875 L91.4101562,62.046875 L91.4101562,97.3984375 C91.4101562,101.890647 91.0195352,109.084586 90.2382812,118.980469 L91.4101562,118.980469 C98.3763369,108.173123 108.695244,102.769531 122.367188,102.769531 Z M112.796875,126.597656 C105.440067,126.597656 100.069027,128.860003 96.6835938,133.384766 C93.2981602,137.909528 91.5403652,145.380156 91.4101562,155.796875 L91.4101562,159.019531 C91.4101562,170.73834 93.1516753,179.136693 96.6347656,184.214844 C100.117856,189.292994 105.635379,191.832031 113.1875,191.832031 C119.307322,191.832031 124.17381,189.016304 127.787109,183.384766 C131.400409,177.753227 133.207031,169.56646 133.207031,158.824219 C133.207031,148.081978 131.384133,140.025417 127.738281,134.654297 C124.09243,129.283176 119.112011,126.597656 112.796875,126.597656 Z M183.988281,200.035156 C183.988281,194.566379 185.45311,190.432306 188.382812,187.632812 C191.312515,184.833319 195.576795,183.433594 201.175781,183.433594 C206.579454,183.433594 210.762355,184.865871 213.724609,187.730469 C216.686864,190.595066 218.167969,194.696588 218.167969,200.035156 C218.167969,205.178411 216.670588,209.231105 213.675781,212.193359 C210.680975,215.155614 206.51435,216.636719 201.175781,216.636719 C195.707004,216.636719 191.475275,215.188166 188.480469,212.291016 C185.485662,209.393866 183.988281,205.30862 183.988281,200.035156 Z" id="b."></path>
                </g>
            </g>
        </g>
    </g>
</svg>
