
<svg width="141px" height="115px" viewBox="0 0 141 115" version="1.1" xmlns="http://www.w3.org/2000/svg" xmlns:xlink="http://www.w3.org/1999/xlink">
    <!-- Generator: Sketch 46.2 (44496) - http://www.bohemiancoding.com/sketch -->
    <desc>Created with Sketch.</desc>
    <defs></defs>
    <g id="Page-1" stroke="none" stroke-width="1" fill="none" fill-rule="evenodd">
        <g id="NEW-clean-nav-Copy" transform="translate(-252.000000, -5677.000000)" stroke="#F6CA63" stroke-width="1" fill="#EBCB6A">
            <g id="start-investing" transform="translate(0.000000, 4973.000000)">
                <g id="Group-6" transform="translate(236.000000, 274.000000)">
                    <path d="M67.9609375,543.953125 C33.9763926,543.953125 16.984375,525.300968 16.984375,487.996094 C16.984375,469.441313 21.6067246,455.265023 30.8515625,445.466797 C40.0964004,435.668571 53.3449658,430.769531 70.5976562,430.769531 C83.2279277,430.769531 94.5559395,433.243465 104.582031,438.191406 L95.7929688,461.238281 C91.1054453,459.350251 86.7435098,457.804042 82.7070312,456.599609 C78.6705527,455.395176 74.6341348,454.792969 70.5976562,454.792969 C55.1027871,454.792969 47.3554688,465.795463 47.3554688,487.800781 C47.3554688,509.155055 55.1027871,519.832031 70.5976562,519.832031 C76.3268516,519.832031 81.6327881,519.067065 86.515625,517.537109 C91.3984619,516.007154 96.2812256,513.6146 101.164062,510.359375 L101.164062,535.847656 C96.3463301,538.907567 91.4798423,541.023432 86.5644531,542.195312 C81.649064,543.367193 75.4479541,543.953125 67.9609375,543.953125 Z M122.257812,528.035156 C122.257812,522.566379 123.722642,518.432306 126.652344,515.632812 C129.582046,512.833319 133.846326,511.433594 139.445312,511.433594 C144.848985,511.433594 149.031886,512.865871 151.994141,515.730469 C154.956395,518.595066 156.4375,522.696588 156.4375,528.035156 C156.4375,533.178411 154.940119,537.231105 151.945312,540.193359 C148.950506,543.155614 144.783881,544.636719 139.445312,544.636719 C133.976535,544.636719 129.744807,543.188166 126.75,540.291016 C123.755193,537.393866 122.257812,533.30862 122.257812,528.035156 Z" id="c."></path>
                </g>
            </g>
        </g>
    </g>
</svg>
